<svg width="178" height="155" viewBox="0 0 178 155" fill="none" xmlns="http://www.w3.org/2000/svg">
<path d="M125.054 71.4241H121.021V76.3954H125.054C127.042 76.3954 128.036 75.4564 128.036 73.9098C128.036 72.3632 127.042 71.4241 125.054 71.4241ZM125.054 71.4241H121.021V76.3954H125.054C127.042 76.3954 128.036 75.4564 128.036 73.9098C128.036 72.3632 127.042 71.4241 125.054 71.4241ZM86.941 71.7003H86.8306L84.4554 78.9362H89.3714L86.941 71.7003ZM105.887 71.7003H105.776L103.401 78.9362H108.317L105.887 71.7003ZM125.054 71.4241H121.021V76.3954H125.054C127.042 76.3954 128.036 75.4564 128.036 73.9098C128.036 72.3632 127.042 71.4241 125.054 71.4241ZM105.887 71.7003H105.776L103.401 78.9362H108.317L105.887 71.7003ZM86.941 71.7003H86.8306L84.4554 78.9362H89.3714L86.941 71.7003ZM125.054 71.4241H121.021V76.3954H125.054C127.042 76.3954 128.036 75.4564 128.036 73.9098C128.036 72.3632 127.042 71.4241 125.054 71.4241ZM86.941 71.7003H86.8306L84.4554 78.9362H89.3714L86.941 71.7003ZM105.887 71.7003H105.776L103.401 78.9362H108.317L105.887 71.7003ZM125.054 71.4241H121.021V76.3954H125.054C127.042 76.3954 128.036 75.4564 128.036 73.9098C128.036 72.3632 127.042 71.4241 125.054 71.4241ZM105.887 71.7003H105.776L103.401 78.9362H108.317L105.887 71.7003ZM86.941 71.7003H86.8306L84.4554 78.9362H89.3714L86.941 71.7003ZM125.054 71.4241H121.021V76.3954H125.054C127.042 76.3954 128.036 75.4564 128.036 73.9098C128.036 72.3632 127.042 71.4241 125.054 71.4241ZM86.941 71.7003H86.8306L84.4554 78.9362H89.3714L86.941 71.7003ZM105.887 71.7003H105.776L103.401 78.9362H108.317L105.887 71.7003ZM125.054 71.4241H121.021V76.3954H125.054C127.042 76.3954 128.036 75.4564 128.036 73.9098C128.036 72.3632 127.042 71.4241 125.054 71.4241ZM105.887 71.7003H105.776L103.401 78.9362H108.317L105.887 71.7003ZM86.941 71.7003H86.8306L84.4554 78.9362H89.3714L86.941 71.7003ZM125.054 71.4241H121.021V76.3954H125.054C127.042 76.3954 128.036 75.4564 128.036 73.9098C128.036 72.3632 127.042 71.4241 125.054 71.4241ZM86.941 71.7003H86.8306L84.4554 78.9362H89.3714L86.941 71.7003ZM105.887 71.7003H105.776L103.401 78.9362H108.317L105.887 71.7003ZM125.054 71.4241H121.021V76.3954H125.054C127.042 76.3954 128.036 75.4564 128.036 73.9098C128.036 72.3632 127.042 71.4241 125.054 71.4241ZM105.887 71.7003H105.776L103.401 78.9362H108.317L105.887 71.7003ZM86.941 71.7003H86.8306L84.4554 78.9362H89.3714L86.941 71.7003ZM125.054 71.4241H121.021V76.3954H125.054C127.042 76.3954 128.036 75.4564 128.036 73.9098C128.036 72.3632 127.042 71.4241 125.054 71.4241ZM86.941 71.7003H86.8306L84.4554 78.9362H89.3714L86.941 71.7003ZM105.887 71.7003H105.776L103.401 78.9362H108.317L105.887 71.7003ZM125.054 71.4241H121.021V76.3954H125.054C127.042 76.3954 128.036 75.4564 128.036 73.9098C128.036 72.3632 127.042 71.4241 125.054 71.4241ZM105.887 71.7003H105.776L103.401 78.9362H108.317L105.887 71.7003ZM86.941 71.7003H86.8306L84.4554 78.9362H89.3714L86.941 71.7003ZM125.054 71.4241H121.021V76.3954H125.054C127.042 76.3954 128.036 75.4564 128.036 73.9098C128.036 72.3632 127.042 71.4241 125.054 71.4241ZM86.941 71.7003H86.8306L84.4554 78.9362H89.3714L86.941 71.7003ZM105.887 71.7003H105.776L103.401 78.9362H108.317L105.887 71.7003ZM125.054 71.4241H121.021V76.3954H125.054C127.042 76.3954 128.036 75.4564 128.036 73.9098C128.036 72.3632 127.042 71.4241 125.054 71.4241ZM105.887 71.7003H105.776L103.401 78.9362H108.317L105.887 71.7003ZM86.941 71.7003H86.8306L84.4554 78.9362H89.3714L86.941 71.7003ZM125.054 71.4241H121.021V76.3954H125.054C127.042 76.3954 128.036 75.4564 128.036 73.9098C128.036 72.3632 127.042 71.4241 125.054 71.4241ZM86.941 71.7003H86.8306L84.4554 78.9362H89.3714L86.941 71.7003ZM105.887 71.7003H105.776L103.401 78.9362H108.317L105.887 71.7003ZM125.054 71.4241H121.021V76.3954H125.054C127.042 76.3954 128.036 75.4564 128.036 73.9098C128.036 72.3632 127.042 71.4241 125.054 71.4241ZM105.887 71.7003H105.776L103.401 78.9362H108.317L105.887 71.7003ZM86.941 71.7003H86.8306L84.4554 78.9362H89.3714L86.941 71.7003ZM125.054 71.4241H121.021V76.3954H125.054C127.042 76.3954 128.036 75.4564 128.036 73.9098C128.036 72.3632 127.042 71.4241 125.054 71.4241ZM86.941 71.7003H86.8306L84.4554 78.9362H89.3714L86.941 71.7003ZM105.887 71.7003H105.776L103.401 78.9362H108.317L105.887 71.7003ZM125.054 71.4241H121.021V76.3954H125.054C127.042 76.3954 128.036 75.4564 128.036 73.9098C128.036 72.3632 127.042 71.4241 125.054 71.4241ZM105.887 71.7003H105.776L103.401 78.9362H108.317L105.887 71.7003ZM86.941 71.7003H86.8306L84.4554 78.9362H89.3714L86.941 71.7003ZM125.054 71.4241H121.021V76.3954H125.054C127.042 76.3954 128.036 75.4564 128.036 73.9098C128.036 72.3632 127.042 71.4241 125.054 71.4241ZM86.941 71.7003H86.8306L84.4554 78.9362H89.3714L86.941 71.7003ZM105.887 71.7003H105.776L103.401 78.9362H108.317L105.887 71.7003ZM125.054 71.4241H121.021V76.3954H125.054C127.042 76.3954 128.036 75.4564 128.036 73.9098C128.036 72.3632 127.042 71.4241 125.054 71.4241ZM105.887 71.7003H105.776L103.401 78.9362H108.317L105.887 71.7003ZM86.941 71.7003H86.8306L84.4554 78.9362H89.3714L86.941 71.7003ZM125.054 71.4241H121.021V76.3954H125.054C127.042 76.3954 128.036 75.4564 128.036 73.9098C128.036 72.3632 127.042 71.4241 125.054 71.4241ZM86.941 71.7003H86.8306L84.4554 78.9362H89.3714L86.941 71.7003ZM105.887 71.7003H105.776L103.401 78.9362H108.317L105.887 71.7003ZM125.054 71.4241H121.021V76.3954H125.054C127.042 76.3954 128.036 75.4564 128.036 73.9098C128.036 72.3632 127.042 71.4241 125.054 71.4241ZM105.887 71.7003H105.776L103.401 78.9362H108.317L105.887 71.7003ZM86.941 71.7003H86.8306L84.4554 78.9362H89.3714L86.941 71.7003ZM125.054 71.4241H121.021V76.3954H125.054C127.042 76.3954 128.036 75.4564 128.036 73.9098C128.036 72.3632 127.042 71.4241 125.054 71.4241ZM86.941 71.7003H86.8306L84.4554 78.9362H89.3714L86.941 71.7003ZM105.887 71.7003H105.776L103.401 78.9362H108.317L105.887 71.7003ZM125.054 71.4241H121.021V76.3954H125.054C127.042 76.3954 128.036 75.4564 128.036 73.9098C128.036 72.3632 127.042 71.4241 125.054 71.4241ZM105.887 71.7003H105.776L103.401 78.9362H108.317L105.887 71.7003ZM86.941 71.7003H86.8306L84.4554 78.9362H89.3714L86.941 71.7003ZM125.054 71.4241H121.021V76.3954H125.054C127.042 76.3954 128.036 75.4564 128.036 73.9098C128.036 72.3632 127.042 71.4241 125.054 71.4241ZM86.941 71.7003H86.8306L84.4554 78.9362H89.3714L86.941 71.7003ZM105.887 71.7003H105.776L103.401 78.9362H108.317L105.887 71.7003ZM125.054 71.4241H121.021V76.3954H125.054C127.042 76.3954 128.036 75.4564 128.036 73.9098C128.036 72.3632 127.042 71.4241 125.054 71.4241ZM105.887 71.7003H105.776L103.401 78.9362H108.317L105.887 71.7003ZM86.941 71.7003H86.8306L84.4554 78.9362H89.3714L86.941 71.7003ZM125.054 71.4241H121.021V76.3954H125.054C127.042 76.3954 128.036 75.4564 128.036 73.9098C128.036 72.3632 127.042 71.4241 125.054 71.4241ZM86.941 71.7003H86.8306L84.4554 78.9362H89.3714L86.941 71.7003ZM105.887 71.7003H105.776L103.401 78.9362H108.317L105.887 71.7003ZM125.054 71.4241H121.021V76.3954H125.054C127.042 76.3954 128.036 75.4564 128.036 73.9098C128.036 72.3632 127.042 71.4241 125.054 71.4241ZM105.887 71.7003H105.776L103.401 78.9362H108.317L105.887 71.7003ZM86.941 71.7003H86.8306L84.4554 78.9362H89.3714L86.941 71.7003ZM125.054 71.4241H121.021V76.3954H125.054C127.042 76.3954 128.036 75.4564 128.036 73.9098C128.036 72.3632 127.042 71.4241 125.054 71.4241ZM86.941 71.7003H86.8306L84.4554 78.9362H89.3714L86.941 71.7003ZM105.887 71.7003H105.776L103.401 78.9362H108.317L105.887 71.7003ZM125.054 71.4241H121.021V76.3954H125.054C127.042 76.3954 128.036 75.4564 128.036 73.9098C128.036 72.3632 127.042 71.4241 125.054 71.4241ZM105.887 71.7003H105.776L103.401 78.9362H108.317L105.887 71.7003ZM86.941 71.7003H86.8306L84.4554 78.9362H89.3714L86.941 71.7003ZM125.054 71.4241H121.021V76.3954H125.054C127.042 76.3954 128.036 75.4564 128.036 73.9098C128.036 72.3632 127.042 71.4241 125.054 71.4241ZM86.941 71.7003H86.8306L84.4554 78.9362H89.3714L86.941 71.7003ZM105.887 71.7003H105.776L103.401 78.9362H108.317L105.887 71.7003ZM125.054 71.4241H121.021V76.3954H125.054C127.042 76.3954 128.036 75.4564 128.036 73.9098C128.036 72.3632 127.042 71.4241 125.054 71.4241ZM105.887 71.7003H105.776L103.401 78.9362H108.317L105.887 71.7003ZM86.941 71.7003H86.8306L84.4554 78.9362H89.3714L86.941 71.7003ZM125.054 71.4241H121.021V76.3954H125.054C127.042 76.3954 128.036 75.4564 128.036 73.9098C128.036 72.3632 127.042 71.4241 125.054 71.4241ZM86.941 71.7003H86.8306L84.4554 78.9362H89.3714L86.941 71.7003ZM105.887 71.7003H105.776L103.401 78.9362H108.317L105.887 71.7003ZM125.054 71.4241H121.021V76.3954H125.054C127.042 76.3954 128.036 75.4564 128.036 73.9098C128.036 72.3632 127.042 71.4241 125.054 71.4241ZM105.887 71.7003H105.776L103.401 78.9362H108.317L105.887 71.7003ZM86.941 71.7003H86.8306L84.4554 78.9362H89.3714L86.941 71.7003ZM125.054 71.4241H121.021V76.3954H125.054C127.042 76.3954 128.036 75.4564 128.036 73.9098C128.036 72.3632 127.042 71.4241 125.054 71.4241ZM86.941 71.7003H86.8306L84.4554 78.9362H89.3714L86.941 71.7003ZM105.887 71.7003H105.776L103.401 78.9362H108.317L105.887 71.7003ZM125.054 71.4241H121.021V76.3954H125.054C127.042 76.3954 128.036 75.4564 128.036 73.9098C128.036 72.3632 127.042 71.4241 125.054 71.4241ZM105.887 71.7003H105.776L103.401 78.9362H108.317L105.887 71.7003ZM86.941 71.7003H86.8306L84.4554 78.9362H89.3714L86.941 71.7003ZM125.054 71.4241H121.021V76.3954H125.054C127.042 76.3954 128.036 75.4564 128.036 73.9098C128.036 72.3632 127.042 71.4241 125.054 71.4241ZM86.941 71.7003H86.8306L84.4554 78.9362H89.3714L86.941 71.7003ZM105.887 71.7003H105.776L103.401 78.9362H108.317L105.887 71.7003ZM125.054 71.4241H121.021V76.3954H125.054C127.042 76.3954 128.036 75.4564 128.036 73.9098C128.036 72.3632 127.042 71.4241 125.054 71.4241ZM105.887 71.7003H105.776L103.401 78.9362H108.317L105.887 71.7003ZM86.941 71.7003H86.8306L84.4554 78.9362H89.3714L86.941 71.7003ZM125.054 71.4241H121.021V76.3954H125.054C127.042 76.3954 128.036 75.4564 128.036 73.9098C128.036 72.3632 127.042 71.4241 125.054 71.4241ZM171.617 53.2516H162.448C152.23 22.43 123.12 0.0595703 88.8743 0.0595703C54.6281 0.0595703 25.5741 22.43 15.3555 53.2516H6.35211C2.81702 53.2516 0 56.1238 0 59.6037V95.8936C0 99.4287 2.87226 102.246 6.35211 102.246H15.5212C25.8503 132.846 54.8491 154.941 88.8743 154.941C122.899 154.941 151.898 132.846 162.227 102.246H171.562C175.097 102.246 177.914 99.3734 177.914 95.8936V59.6037C177.914 56.0686 175.042 53.2516 171.562 53.2516H171.617ZM88.8743 152.676C56.1195 152.676 28.2255 131.576 17.9516 102.301H48.5522C56.8928 115.834 71.8617 124.892 88.8743 124.892C105.887 124.892 120.856 115.834 129.196 102.301H159.797C149.523 131.631 121.629 152.676 88.8743 152.676ZM49.3807 77.0582C48.1656 77.0582 47.337 77.6105 46.7847 78.2734H42.9734L43.8019 68.4414H54.9596V71.7003H47.0608L46.7847 75.3459H46.8951C47.7789 74.4621 48.8284 74.0202 50.3198 74.0202C52.9711 74.0202 56.1747 75.7878 56.1747 80.2066C56.1747 84.6255 52.9711 86.393 49.436 86.393C45.9009 86.393 43.1943 84.736 42.642 81.3666L46.7294 80.9247C46.9504 82.3608 47.9446 83.2998 49.436 83.2998C50.9273 83.2998 52.0873 82.3056 52.0873 80.1514C52.0873 77.9972 50.9273 77.0582 49.3807 77.0582ZM132.842 86.0616H127.871L124.28 79.7647H121.021V86.0616H116.768V68.11H125.772C129.97 68.11 132.4 70.3194 132.4 73.9098C132.4 77.5001 131.074 78.4391 128.755 79.2676L132.897 86.0064L132.842 86.0616ZM68.4371 117.656C61.4774 114.066 55.5671 108.763 51.314 102.301H126.49C118.425 114.508 104.561 122.572 88.9295 122.572C73.2978 122.572 74.6787 120.805 68.5475 117.712H68.4923L68.4371 117.656ZM66.9457 79.82C67.1666 82.0294 68.1609 83.0236 69.9284 83.0236C71.696 83.0236 72.6902 82.0294 72.6902 79.82V68.11H77.0538V80.0962C77.0538 84.6807 74.0159 86.4483 69.9284 86.4483C65.841 86.4483 63.3001 84.4598 62.803 80.2066C62.803 79.82 62.7478 79.4886 62.803 79.2676L66.9457 78.881C66.9457 79.1571 66.9457 79.4886 66.9457 79.82ZM77.551 86.0616L84.0688 68.11H89.7581L96.2759 86.0616H91.6913L90.3104 82.0294H83.2955L81.9698 86.0616H77.4405H77.551ZM96.4968 86.0616L103.015 68.11H108.704L115.222 86.0616H110.637L109.256 82.0294H102.241L100.916 86.0616H96.3864H96.4968ZM50.9826 53.2516C58.9918 40.7683 72.9664 32.4829 88.8743 32.4829C104.782 32.4829 118.757 40.7683 126.766 53.2516H50.9826ZM129.528 53.2516C121.242 39.4427 106.108 30.163 88.8743 30.163C71.6407 30.163 56.5062 39.4427 48.276 53.2516H17.7859C27.9493 23.7005 55.9538 2.37947 88.8743 2.37947C121.795 2.37947 149.855 23.7005 159.963 53.2516H129.528ZM125.054 71.4241H121.021V76.3954H125.054C127.042 76.3954 128.036 75.4564 128.036 73.9098C128.036 72.3632 127.042 71.4241 125.054 71.4241ZM105.887 71.7003H105.776L103.401 78.9362H108.317L105.887 71.7003ZM86.941 71.7003H86.8306L84.4554 78.9362H89.3714L86.941 71.7003ZM125.054 71.4241H121.021V76.3954H125.054C127.042 76.3954 128.036 75.4564 128.036 73.9098C128.036 72.3632 127.042 71.4241 125.054 71.4241ZM86.941 71.7003H86.8306L84.4554 78.9362H89.3714L86.941 71.7003ZM105.887 71.7003H105.776L103.401 78.9362H108.317L105.887 71.7003ZM125.054 71.4241H121.021V76.3954H125.054C127.042 76.3954 128.036 75.4564 128.036 73.9098C128.036 72.3632 127.042 71.4241 125.054 71.4241ZM105.887 71.7003H105.776L103.401 78.9362H108.317L105.887 71.7003ZM86.941 71.7003H86.8306L84.4554 78.9362H89.3714L86.941 71.7003ZM125.054 71.4241H121.021V76.3954H125.054C127.042 76.3954 128.036 75.4564 128.036 73.9098C128.036 72.3632 127.042 71.4241 125.054 71.4241ZM86.941 71.7003H86.8306L84.4554 78.9362H89.3714L86.941 71.7003ZM105.887 71.7003H105.776L103.401 78.9362H108.317L105.887 71.7003ZM125.054 71.4241H121.021V76.3954H125.054C127.042 76.3954 128.036 75.4564 128.036 73.9098C128.036 72.3632 127.042 71.4241 125.054 71.4241ZM105.887 71.7003H105.776L103.401 78.9362H108.317L105.887 71.7003ZM86.941 71.7003H86.8306L84.4554 78.9362H89.3714L86.941 71.7003ZM125.054 71.4241H121.021V76.3954H125.054C127.042 76.3954 128.036 75.4564 128.036 73.9098C128.036 72.3632 127.042 71.4241 125.054 71.4241ZM86.941 71.7003H86.8306L84.4554 78.9362H89.3714L86.941 71.7003ZM105.887 71.7003H105.776L103.401 78.9362H108.317L105.887 71.7003ZM125.054 71.4241H121.021V76.3954H125.054C127.042 76.3954 128.036 75.4564 128.036 73.9098C128.036 72.3632 127.042 71.4241 125.054 71.4241ZM105.887 71.7003H105.776L103.401 78.9362H108.317L105.887 71.7003ZM86.941 71.7003H86.8306L84.4554 78.9362H89.3714L86.941 71.7003ZM125.054 71.4241H121.021V76.3954H125.054C127.042 76.3954 128.036 75.4564 128.036 73.9098C128.036 72.3632 127.042 71.4241 125.054 71.4241ZM86.941 71.7003H86.8306L84.4554 78.9362H89.3714L86.941 71.7003ZM105.887 71.7003H105.776L103.401 78.9362H108.317L105.887 71.7003ZM125.054 71.4241H121.021V76.3954H125.054C127.042 76.3954 128.036 75.4564 128.036 73.9098C128.036 72.3632 127.042 71.4241 125.054 71.4241ZM105.887 71.7003H105.776L103.401 78.9362H108.317L105.887 71.7003ZM86.941 71.7003H86.8306L84.4554 78.9362H89.3714L86.941 71.7003ZM125.054 71.4241H121.021V76.3954H125.054C127.042 76.3954 128.036 75.4564 128.036 73.9098C128.036 72.3632 127.042 71.4241 125.054 71.4241ZM86.941 71.7003H86.8306L84.4554 78.9362H89.3714L86.941 71.7003ZM105.887 71.7003H105.776L103.401 78.9362H108.317L105.887 71.7003ZM125.054 71.4241H121.021V76.3954H125.054C127.042 76.3954 128.036 75.4564 128.036 73.9098C128.036 72.3632 127.042 71.4241 125.054 71.4241ZM105.887 71.7003H105.776L103.401 78.9362H108.317L105.887 71.7003ZM86.941 71.7003H86.8306L84.4554 78.9362H89.3714L86.941 71.7003ZM125.054 71.4241H121.021V76.3954H125.054C127.042 76.3954 128.036 75.4564 128.036 73.9098C128.036 72.3632 127.042 71.4241 125.054 71.4241ZM86.941 71.7003H86.8306L84.4554 78.9362H89.3714L86.941 71.7003ZM105.887 71.7003H105.776L103.401 78.9362H108.317L105.887 71.7003ZM125.054 71.4241H121.021V76.3954H125.054C127.042 76.3954 128.036 75.4564 128.036 73.9098C128.036 72.3632 127.042 71.4241 125.054 71.4241ZM105.887 71.7003H105.776L103.401 78.9362H108.317L105.887 71.7003ZM86.941 71.7003H86.8306L84.4554 78.9362H89.3714L86.941 71.7003ZM125.054 71.4241H121.021V76.3954H125.054C127.042 76.3954 128.036 75.4564 128.036 73.9098C128.036 72.3632 127.042 71.4241 125.054 71.4241ZM86.941 71.7003H86.8306L84.4554 78.9362H89.3714L86.941 71.7003ZM105.887 71.7003H105.776L103.401 78.9362H108.317L105.887 71.7003ZM125.054 71.4241H121.021V76.3954H125.054C127.042 76.3954 128.036 75.4564 128.036 73.9098C128.036 72.3632 127.042 71.4241 125.054 71.4241ZM105.887 71.7003H105.776L103.401 78.9362H108.317L105.887 71.7003ZM86.941 71.7003H86.8306L84.4554 78.9362H89.3714L86.941 71.7003ZM125.054 71.4241H121.021V76.3954H125.054C127.042 76.3954 128.036 75.4564 128.036 73.9098C128.036 72.3632 127.042 71.4241 125.054 71.4241ZM86.941 71.7003H86.8306L84.4554 78.9362H89.3714L86.941 71.7003ZM105.887 71.7003H105.776L103.401 78.9362H108.317L105.887 71.7003ZM125.054 71.4241H121.021V76.3954H125.054C127.042 76.3954 128.036 75.4564 128.036 73.9098C128.036 72.3632 127.042 71.4241 125.054 71.4241ZM105.887 71.7003H105.776L103.401 78.9362H108.317L105.887 71.7003ZM86.941 71.7003H86.8306L84.4554 78.9362H89.3714L86.941 71.7003ZM125.054 71.4241H121.021V76.3954H125.054C127.042 76.3954 128.036 75.4564 128.036 73.9098C128.036 72.3632 127.042 71.4241 125.054 71.4241ZM86.941 71.7003H86.8306L84.4554 78.9362H89.3714L86.941 71.7003ZM105.887 71.7003H105.776L103.401 78.9362H108.317L105.887 71.7003ZM125.054 71.4241H121.021V76.3954H125.054C127.042 76.3954 128.036 75.4564 128.036 73.9098C128.036 72.3632 127.042 71.4241 125.054 71.4241ZM105.887 71.7003H105.776L103.401 78.9362H108.317L105.887 71.7003ZM86.941 71.7003H86.8306L84.4554 78.9362H89.3714L86.941 71.7003ZM125.054 71.4241H121.021V76.3954H125.054C127.042 76.3954 128.036 75.4564 128.036 73.9098C128.036 72.3632 127.042 71.4241 125.054 71.4241ZM86.941 71.7003H86.8306L84.4554 78.9362H89.3714L86.941 71.7003ZM105.887 71.7003H105.776L103.401 78.9362H108.317L105.887 71.7003ZM125.054 71.4241H121.021V76.3954H125.054C127.042 76.3954 128.036 75.4564 128.036 73.9098C128.036 72.3632 127.042 71.4241 125.054 71.4241ZM105.887 71.7003H105.776L103.401 78.9362H108.317L105.887 71.7003ZM86.941 71.7003H86.8306L84.4554 78.9362H89.3714L86.941 71.7003ZM125.054 71.4241H121.021V76.3954H125.054C127.042 76.3954 128.036 75.4564 128.036 73.9098C128.036 72.3632 127.042 71.4241 125.054 71.4241ZM86.941 71.7003H86.8306L84.4554 78.9362H89.3714L86.941 71.7003ZM105.887 71.7003H105.776L103.401 78.9362H108.317L105.887 71.7003ZM125.054 71.4241H121.021V76.3954H125.054C127.042 76.3954 128.036 75.4564 128.036 73.9098C128.036 72.3632 127.042 71.4241 125.054 71.4241ZM105.887 71.7003H105.776L103.401 78.9362H108.317L105.887 71.7003ZM86.941 71.7003H86.8306L84.4554 78.9362H89.3714L86.941 71.7003ZM125.054 71.4241H121.021V76.3954H125.054C127.042 76.3954 128.036 75.4564 128.036 73.9098C128.036 72.3632 127.042 71.4241 125.054 71.4241ZM86.941 71.7003H86.8306L84.4554 78.9362H89.3714L86.941 71.7003ZM105.887 71.7003H105.776L103.401 78.9362H108.317L105.887 71.7003ZM125.054 71.4241H121.021V76.3954H125.054C127.042 76.3954 128.036 75.4564 128.036 73.9098C128.036 72.3632 127.042 71.4241 125.054 71.4241ZM105.887 71.7003H105.776L103.401 78.9362H108.317L105.887 71.7003ZM86.941 71.7003H86.8306L84.4554 78.9362H89.3714L86.941 71.7003ZM125.054 71.4241H121.021V76.3954H125.054C127.042 76.3954 128.036 75.4564 128.036 73.9098C128.036 72.3632 127.042 71.4241 125.054 71.4241ZM86.941 71.7003H86.8306L84.4554 78.9362H89.3714L86.941 71.7003ZM105.887 71.7003H105.776L103.401 78.9362H108.317L105.887 71.7003ZM125.054 71.4241H121.021V76.3954H125.054C127.042 76.3954 128.036 75.4564 128.036 73.9098C128.036 72.3632 127.042 71.4241 125.054 71.4241ZM105.887 71.7003H105.776L103.401 78.9362H108.317L105.887 71.7003ZM86.941 71.7003H86.8306L84.4554 78.9362H89.3714L86.941 71.7003ZM125.054 71.4241H121.021V76.3954H125.054C127.042 76.3954 128.036 75.4564 128.036 73.9098C128.036 72.3632 127.042 71.4241 125.054 71.4241ZM86.941 71.7003H86.8306L84.4554 78.9362H89.3714L86.941 71.7003ZM105.887 71.7003H105.776L103.401 78.9362H108.317L105.887 71.7003ZM125.054 71.4241H121.021V76.3954H125.054C127.042 76.3954 128.036 75.4564 128.036 73.9098C128.036 72.3632 127.042 71.4241 125.054 71.4241ZM105.887 71.7003H105.776L103.401 78.9362H108.317L105.887 71.7003ZM86.941 71.7003H86.8306L84.4554 78.9362H89.3714L86.941 71.7003ZM125.054 71.4241H121.021V76.3954H125.054C127.042 76.3954 128.036 75.4564 128.036 73.9098C128.036 72.3632 127.042 71.4241 125.054 71.4241ZM86.941 71.7003H86.8306L84.4554 78.9362H89.3714L86.941 71.7003ZM105.887 71.7003H105.776L103.401 78.9362H108.317L105.887 71.7003ZM125.054 71.4241H121.021V76.3954H125.054C127.042 76.3954 128.036 75.4564 128.036 73.9098C128.036 72.3632 127.042 71.4241 125.054 71.4241ZM105.887 71.7003H105.776L103.401 78.9362H108.317L105.887 71.7003ZM86.941 71.7003H86.8306L84.4554 78.9362H89.3714L86.941 71.7003ZM125.054 71.4241H121.021V76.3954H125.054C127.042 76.3954 128.036 75.4564 128.036 73.9098C128.036 72.3632 127.042 71.4241 125.054 71.4241ZM86.941 71.7003H86.8306L84.4554 78.9362H89.3714L86.941 71.7003ZM105.887 71.7003H105.776L103.401 78.9362H108.317L105.887 71.7003ZM125.054 71.4241H121.021V76.3954H125.054C127.042 76.3954 128.036 75.4564 128.036 73.9098C128.036 72.3632 127.042 71.4241 125.054 71.4241ZM105.887 71.7003H105.776L103.401 78.9362H108.317L105.887 71.7003ZM86.941 71.7003H86.8306L84.4554 78.9362H89.3714L86.941 71.7003ZM125.054 71.4241H121.021V76.3954H125.054C127.042 76.3954 128.036 75.4564 128.036 73.9098C128.036 72.3632 127.042 71.4241 125.054 71.4241ZM86.941 71.7003H86.8306L84.4554 78.9362H89.3714L86.941 71.7003ZM105.887 71.7003H105.776L103.401 78.9362H108.317L105.887 71.7003ZM125.054 71.4241H121.021V76.3954H125.054C127.042 76.3954 128.036 75.4564 128.036 73.9098C128.036 72.3632 127.042 71.4241 125.054 71.4241ZM105.887 71.7003H105.776L103.401 78.9362H108.317L105.887 71.7003ZM86.941 71.7003H86.8306L84.4554 78.9362H89.3714L86.941 71.7003ZM125.054 71.4241H121.021V76.3954H125.054C127.042 76.3954 128.036 75.4564 128.036 73.9098C128.036 72.3632 127.042 71.4241 125.054 71.4241ZM105.887 71.7003H105.776L103.401 78.9362H108.317L105.887 71.7003ZM125.054 71.4241H121.021V76.3954H125.054C127.042 76.3954 128.036 75.4564 128.036 73.9098C128.036 72.3632 127.042 71.4241 125.054 71.4241ZM105.887 71.7003H105.776L103.401 78.9362H108.317L105.887 71.7003Z" fill="#091022"/>
<path d="M88.2675 35.1343L90.2008 40.9893H96.332L91.3607 44.5796L93.2388 50.4898L88.2675 46.8443L83.2963 50.4898L85.1743 44.5796L80.2031 40.9893H86.3895L88.2675 35.1343Z" fill="#091022"/>
<path d="M104.396 37.896L105.832 42.3149H110.472L106.716 45.0214L108.152 49.4403L104.396 46.6785L100.695 49.4403L102.131 45.0214L98.375 42.3149H103.015L104.396 37.896Z" fill="#091022"/>
<path d="M72.1384 37.896L73.5746 42.3149H78.1591L74.4583 45.0214L75.8945 49.4403L72.1384 46.6785L68.3824 49.4403L69.8185 45.0214L66.0625 42.3149H70.7023L72.1384 37.896Z" fill="#091022"/>
<path d="M88.2675 103.46L90.2008 109.315H96.332L91.3607 112.961L93.2388 118.816L88.2675 115.17L83.2963 118.816L85.1743 112.961L80.2031 109.315H86.3895L88.2675 103.46Z" fill="#091022"/>
<path d="M104.396 106.278L105.832 110.641H110.472L106.716 113.348L108.152 117.767L104.396 115.06L100.695 117.767L102.131 113.348L98.375 110.641H103.015L104.396 106.278Z" fill="#091022"/>
<path d="M72.1384 106.278L73.5746 110.641H78.1591L74.4583 113.348L75.8945 117.767L72.1384 115.06L68.3824 117.767L69.8185 113.348L66.0625 110.641H70.7023L72.1384 106.278Z" fill="#091022"/>
<path d="M45.5152 40.4917C47.9455 37.509 47.8903 34.5263 45.1838 32.3169C42.4772 30.1074 39.5497 30.6045 37.1193 33.5873L31.9824 39.8289L44.1343 49.8266L47.2275 46.0706L43.4715 42.9774L45.5704 40.4365L45.5152 40.4917ZM42.0906 38.8899L40.5992 40.7127L37.7822 38.3928L39.2735 36.57C40.1573 35.4653 41.1516 35.4101 41.9801 36.0729C42.8639 36.791 42.9191 37.7852 42.0353 38.8347L42.0906 38.8899Z" fill="#4169E1"/>
<path d="M61.312 33.2011L65.9518 29.9974L59.9864 27.2909C60.9806 25.5786 60.9254 23.6453 59.655 21.7673C57.7217 18.9503 54.6838 18.6189 51.5353 20.8283L44.6309 25.5786L53.5238 38.559L57.5008 35.7972L54.6838 31.7098L56.2304 30.605L61.2568 33.2011H61.312ZM54.8495 27.1804L52.6953 28.6718L50.7068 25.7995L52.861 24.3082C54.0209 23.5349 54.9599 23.7006 55.5675 24.5843C56.1751 25.4681 56.0094 26.4071 54.8495 27.1804Z" fill="#4169E1"/>
<path d="M78.9873 17.7347C77.3855 12.653 73.1875 10.9407 68.7134 12.3216C64.2393 13.7025 61.7537 17.5138 63.3003 22.5955C64.9022 27.6772 69.1001 29.3895 73.5742 28.0086C78.0483 26.6277 80.5339 22.8164 78.9873 17.7347ZM72.4695 24.363C70.9229 24.8601 69.0449 24.4735 67.9954 21.1041C66.9459 17.7347 68.2716 16.4091 69.8182 15.912C71.3648 15.4148 73.2428 15.8015 74.2923 19.1709C75.3417 22.5402 74.0161 23.8659 72.4695 24.363Z" fill="#4169E1"/>
<path d="M88.5431 9.61535L81.8596 9.50488L81.6387 25.1918L88.3222 25.3023C93.2934 25.3575 96.8837 23.2033 96.939 17.5693C97.0494 11.9353 93.5144 9.67059 88.5431 9.56012V9.61535ZM87.5489 21.6567H86.4994L86.6651 13.2057H87.7146C90.4212 13.2609 92.0782 13.979 92.023 17.5141C91.9678 21.0492 90.2554 21.712 87.5489 21.6567Z" fill="#4169E1"/>
<path d="M111.466 13.4265L108.649 22.4852C108.097 24.1975 106.992 24.9156 105.445 24.4184C103.844 23.9213 103.347 22.7614 103.899 20.9938L106.716 11.9352L102.076 10.499L99.1486 19.9996C97.8782 24.0318 100.364 26.7936 104.341 28.064C108.318 29.2792 111.908 28.4506 113.178 24.3632L116.106 14.8626L111.466 13.4265Z" fill="#4169E1"/>
<path d="M130.743 30.1629C131.903 27.3459 130.964 23.5898 127.54 21.2699C123.673 18.6186 119.254 19.1158 116.272 23.4794C113.289 27.843 114.394 32.1514 118.26 34.8027C121.795 37.1778 125.662 36.6807 128.147 34.0294L124.336 30.9362C123.066 32.2619 121.63 32.4828 120.414 31.6543C119.254 30.881 118.371 29.1134 120.359 26.2412C122.348 23.3137 124.281 23.5898 125.441 24.3631C126.656 25.1917 126.877 26.5173 126.435 27.7878L130.743 30.1077V30.1629Z" fill="#4169E1"/>
<path d="M136.82 28.8926L133.782 31.4335L136.82 35.079L127.762 42.5359L130.855 46.2919L139.914 38.8351L142.952 42.4806L146.045 39.9398L136.931 28.8374L136.82 28.8926Z" fill="#4169E1"/>
<path d="M46.7843 116.717C48.6623 114.397 48.9385 110.862 46.5634 107.493C43.8568 103.681 39.4932 102.522 35.1296 105.615C30.766 108.708 30.4346 113.237 33.1411 116.993C34.2458 118.54 35.7372 119.534 37.6704 119.755L36.2343 120.749L38.0019 123.235L45.1273 118.208L40.7084 111.967L38.0571 113.845L39.8246 116.386C37.8914 116.662 36.8971 115.778 36.2343 114.839C35.2953 113.569 35.1296 111.691 38.0019 109.647C40.8741 107.603 42.5312 108.432 43.4702 109.702C44.354 110.973 44.133 112.133 43.4702 113.072L46.7843 116.717Z" fill="#091022"/>
<path d="M54.9588 117.38L41.2051 126.715L45.2373 129.753L47.7229 127.93L52.0313 131.134L50.9818 134.006L55.1245 137.1L60.2614 121.302L54.9588 117.325V117.38ZM53.2465 127.875L50.5399 125.832L55.1797 122.352H55.235L53.2465 127.875Z" fill="#091022"/>
<path d="M72.4703 127.157L64.6268 124.34L59.3242 139.143L63.9088 140.745L65.5659 136.05L67.3886 136.713L68.2172 142.292L73.5198 144.17L72.2494 137.763C74.2379 137.597 75.7292 136.382 76.5025 134.283C77.6625 131.024 76.1159 128.428 72.5256 127.157H72.4703ZM71.8075 132.626C71.4208 133.62 70.5923 134.062 69.2667 133.565L66.781 132.681L67.941 129.422L70.4266 130.306C71.7523 130.748 72.1389 131.631 71.8075 132.626Z" fill="#091022"/>
<path d="M89.8136 129.864L83.1853 129.587L77.1094 145.053L82.1911 145.274L83.1853 142.347L88.5432 142.568L89.3165 145.551L94.4534 145.771L89.8136 129.808V129.864ZM84.29 139.088L86.168 133.62H86.2785L87.7146 139.254L84.29 139.088Z" fill="#091022"/>
<path d="M108.261 142.733L113.563 141.297L109.531 126.107L105.278 127.212L107.653 136.105H107.598L100.528 128.483L95.1699 129.919L99.2021 145.109L103.455 143.949L101.025 134.835H101.08L108.261 142.678V142.733Z" fill="#091022"/>
<path d="M120.082 124.285L124.169 121.799L122.126 118.43L109.863 125.887L111.907 129.256L115.994 126.77L122.126 136.823L126.268 134.282L120.137 124.229L120.082 124.285Z" fill="#091022"/>
<path d="M126.158 114.176L122.623 117.49L133.339 129.035L136.874 125.721L126.158 114.176Z" fill="#091022"/>
<path d="M144.386 110.476L139.912 116.552L137.868 115.061L142.066 109.371L139.249 107.328L135.051 113.017L133.173 111.636L137.647 105.56L134.719 103.406L127.373 113.403L140.022 122.738L147.368 112.741L144.33 110.531L144.386 110.476Z" fill="#091022"/>
</svg>
