<svg width="33" height="33" viewBox="0 0 33 33" fill="none" xmlns="http://www.w3.org/2000/svg">
<path d="M31.4785 2.5625C32.166 2.75 32.666 3.3125 32.666 4C32.666 20.0625 19.666 33 3.66602 33C2.91602 33 2.35352 32.5625 2.16602 31.875L0.666016 25.375C0.541016 24.6875 0.853516 23.9375 1.54102 23.625L8.54102 20.625C9.16602 20.375 9.85352 20.5625 10.291 21.0625L13.416 24.875C18.291 22.5625 22.2285 18.5625 24.4785 13.8125L20.666 10.6875C20.166 10.25 19.9785 9.5625 20.2285 8.9375L23.2285 1.9375C23.541 1.25 24.291 0.875 24.9785 1.0625L31.4785 2.5625Z" fill="#4169E1"/>
</svg>
