<svg width="20" height="20" viewBox="0 0 20 20" fill="none" xmlns="http://www.w3.org/2000/svg">
<path d="M6.98804 2.06589L6.27134 2.28192C4.96781 2.67484 4.01042 3.78801 3.81695 5.13565C3.51998 7.20438 4.18421 9.62242 5.78466 12.3945C7.38174 15.1607 9.13964 16.9433 11.0749 17.7231C12.3445 18.2346 13.7958 17.9592 14.7896 17.018L15.3324 16.5039C16.0599 15.815 16.1653 14.694 15.5791 13.8815L14.2225 12.0014C13.8468 11.4807 13.1814 11.2569 12.5675 11.4446L10.5168 12.0716L10.4638 12.082C10.2376 12.115 9.71638 11.6259 9.06625 10.4999C8.3861 9.32181 8.24514 8.63298 8.43292 8.45541L9.47627 7.48248C10.2582 6.75332 10.4892 5.60728 10.0508 4.63213L9.38939 3.16075C8.97749 2.24451 7.94986 1.77597 6.98804 2.06589ZM8.47731 3.57077L9.13877 5.04215C9.40161 5.62682 9.26309 6.31395 8.79427 6.75113L7.74837 7.72645C7.07928 8.35918 7.30089 9.44218 8.20022 10.9999C9.04643 12.4655 9.81842 13.1898 10.6479 13.0642L10.7723 13.0376L12.8599 12.4009C13.0645 12.3383 13.2863 12.413 13.4115 12.5865L14.7681 14.4666C15.0613 14.8729 15.0085 15.4334 14.6448 15.7778L14.102 16.2919C13.3921 16.9642 12.3555 17.1609 11.4486 16.7955C9.75054 16.1113 8.14573 14.484 6.65069 11.8945C5.15258 9.29969 4.54629 7.09254 4.80681 5.27775C4.945 4.31515 5.62885 3.52003 6.55994 3.23937L7.27664 3.02334C7.75755 2.87838 8.27137 3.11265 8.47731 3.57077Z" fill="#676B76"/>
</svg>
