<svg width="28" height="28" viewBox="0 0 28 28" fill="none" xmlns="http://www.w3.org/2000/svg">
<path d="M14 0C6.27 0 0 6.3083 0 14.0855C0 21.1182 5.12 26.9436 11.81 28V18.1603H8.25V14.0855H11.81V10.9766C11.81 7.4452 13.9 5.49335 17.1 5.49335C18.63 5.49335 20.23 5.765 20.23 5.765V9.23608H18.46C18.24 9.23608 18.04 9.2562 17.86 9.28638C17.69 9.31656 17.54 9.36687 17.4 9.41718H17.37C17.24 9.46748 17.12 9.53791 17.02 9.60834C17.01 9.60834 16.99 9.6184 16.98 9.62846C16.89 9.69889 16.81 9.77938 16.73 9.8498C16.71 9.86992 16.69 9.87999 16.67 9.90011C16.61 9.96047 16.57 10.041 16.53 10.1114C16.5 10.1516 16.47 10.1919 16.45 10.2321C16.42 10.2925 16.4 10.3629 16.37 10.4233C16.35 10.4837 16.32 10.544 16.3 10.6044C16.28 10.6748 16.27 10.7452 16.26 10.8056C16.25 10.866 16.23 10.9364 16.22 10.9968C16.2 11.1376 16.19 11.2684 16.19 11.4093V14.0553H20.07L19.45 18.1301H16.19V27.9698C22.88 26.9134 28 21.088 28 14.0553C28 6.3083 21.73 0 14 0Z" fill="white"/>
</svg>
