<svg width="28" height="28" viewBox="0 0 28 28" fill="none" xmlns="http://www.w3.org/2000/svg">
<path d="M21.8808 4.48999C20.8708 4.48999 20.0508 5.28999 20.0508 6.26999C20.0508 7.24999 20.8708 8.04999 21.8808 8.04999C22.8908 8.04999 23.7108 7.24999 23.7108 6.26999C23.7108 5.28999 22.8908 4.48999 21.8808 4.48999Z" fill="white"/>
<path d="M14.0401 6.38965C9.78008 6.38965 6.33008 9.74965 6.33008 13.8896C6.33008 18.0296 9.78008 21.3896 14.0401 21.3896C18.3001 21.3896 21.7501 18.0296 21.7501 13.8896C21.7501 9.74965 18.3001 6.38965 14.0401 6.38965ZM14.0001 18.8196C11.2101 18.8196 8.95008 16.6196 8.95008 13.9096C8.95008 11.1996 11.2101 8.99965 14.0001 8.99965C16.7901 8.99965 19.0501 11.1996 19.0501 13.9096C19.0501 16.6196 16.7901 18.8196 14.0001 18.8196Z" fill="white"/>
<path d="M19.85 0H8.14C3.65 0 0 3.55 0 7.93V20.07C0 24.44 3.65 27.98 8.14 28H19.85C24.34 27.99 27.98 24.45 27.99 20.07V7.93C27.98 3.56 24.34 0.02 19.85 0ZM25.85 20.07C25.84 23.29 23.16 25.89 19.85 25.9H8.14C4.84 25.89 2.16 23.28 2.15 20.07V7.93C2.15 4.71 4.84 2.11 8.14 2.1H19.85C23.16 2.1 25.83 4.72 25.85 7.93V20.07Z" fill="white"/>
</svg>
