<svg width="28" height="28" viewBox="0 0 28 28" fill="none" xmlns="http://www.w3.org/2000/svg">
<path d="M26.1231 6.97259C24.8711 4.82775 23.1729 3.12954 21.028 1.87763C18.8831 0.625792 16.5407 0 14.0005 0C11.4605 0 9.11801 0.625792 6.97317 1.87763C4.828 3.12934 3.12979 4.82756 1.87795 6.97259C0.625792 9.11776 0 11.4601 0 14.0002C0 16.8319 0.771625 19.4026 2.31507 21.7111C3.85845 24.0207 5.88191 25.728 8.38546 26.8339C8.33681 25.5336 8.41586 24.4581 8.62228 23.6075L10.4271 15.9871C10.1232 15.3914 9.9713 14.6507 9.9713 13.7631C9.9713 12.7304 10.2324 11.8675 10.7551 11.1746C11.2777 10.4818 11.9157 10.1355 12.6692 10.1355C13.2767 10.1355 13.7445 10.336 14.0728 10.737C14.4011 11.1382 14.5647 11.6424 14.5647 12.2502C14.5647 12.6267 14.4945 13.0856 14.3547 13.6264C14.215 14.1673 14.0329 14.7932 13.808 15.5042C13.5832 16.215 13.4221 16.7835 13.3249 17.2085C13.1549 17.9497 13.2946 18.5846 13.7443 19.1136C14.1939 19.6422 14.7896 19.9068 15.531 19.9068C16.8313 19.9068 17.8976 19.1838 18.7303 17.7377C19.5628 16.2912 19.9788 14.5351 19.9788 12.4692C19.9788 10.8769 19.4653 9.58258 18.4382 8.58633C17.4111 7.5897 15.9802 7.09116 14.145 7.09116C12.0915 7.09116 10.4294 7.75054 9.15945 9.0691C7.88941 10.3879 7.25443 11.9648 7.25443 13.7998C7.25443 14.8937 7.56435 15.8114 8.18408 16.5525C8.39063 16.7955 8.45755 17.0568 8.38457 17.3365C8.36024 17.4095 8.31172 17.5917 8.23874 17.8832C8.16607 18.1747 8.11723 18.3635 8.09309 18.4483C7.99598 18.8372 7.76491 18.9587 7.40032 18.8128C6.46467 18.4243 5.75357 17.7495 5.26761 16.7894C4.78146 15.8293 4.53832 14.7171 4.53832 13.4535C4.53832 12.6393 4.66902 11.8251 4.93036 11.0109C5.19144 10.1964 5.59874 9.40968 6.15155 8.65006C6.70468 7.89024 7.36699 7.21873 8.13875 6.63566C8.91018 6.05239 9.84909 5.58456 10.955 5.23211C12.061 4.87966 13.2518 4.70343 14.528 4.70343C16.254 4.70343 17.8032 5.08621 19.1763 5.85184C20.5498 6.61752 21.5978 7.60783 22.321 8.82322C23.0442 10.0387 23.4056 11.3391 23.4056 12.7245C23.4056 14.5474 23.0897 16.1879 22.458 17.6464C21.8261 19.1047 20.9328 20.2501 19.778 21.0824C18.6234 21.9151 17.311 22.3313 15.8401 22.3313C15.099 22.3313 14.4062 22.1581 13.7619 21.8119C13.1179 21.4654 12.6743 21.0555 12.4313 20.5814C11.8844 22.7321 11.5562 24.0146 11.4467 24.4277C11.2159 25.2901 10.742 26.2869 10.0248 27.4171C11.3252 27.806 12.6498 28 13.9988 28C16.5388 28 18.8814 27.3742 21.0263 26.1222C23.1713 24.8706 24.8695 23.1724 26.1211 21.0275C27.3729 18.8822 27.9987 16.5397 27.9987 13.9999C27.9994 11.4601 27.3745 9.11744 26.1231 6.97259Z" fill="white"/>
</svg>
