<svg width="32" height="32" viewBox="0 0 32 32" fill="none" xmlns="http://www.w3.org/2000/svg">
<path d="M16 0.5C24.5 0.5 31.5 7.5 31.5 16C31.5 24.5625 24.5 31.5 16 31.5C7.4375 31.5 0.5 24.5625 0.5 16C0.5 7.5 7.4375 0.5 16 0.5ZM16 3.5C9.0625 3.5 3.5 9.125 3.5 16C3.5 22.9375 9.0625 28.5 16 28.5C22.875 28.5 28.5 22.9375 28.5 16C28.5 9.125 22.875 3.5 16 3.5ZM24.75 11.6875C25 11.9375 25 12.4375 24.75 12.75L13.9375 23.4375C13.625 23.75 13.1875 23.75 12.875 23.4375L7.1875 17.6875C6.9375 17.4375 6.9375 16.9375 7.1875 16.625L8.625 15.25C8.9375 14.9375 9.375 14.9375 9.6875 15.25L13.4375 19L22.25 10.25C22.5625 9.9375 23.0625 9.9375 23.3125 10.25L24.75 11.6875Z" fill="#4169E1"/>
</svg>
