<svg width="48" height="51" viewBox="0 0 48 51" fill="none" xmlns="http://www.w3.org/2000/svg">
<path d="M46.0078 28.2773C46.3984 30.5234 46.1055 32.6719 45.1289 34.4297C45.4219 36.7734 44.7383 39.2148 43.3711 40.9727C43.2734 46.4414 39.9531 50.25 32.4336 50.25C31.75 50.25 30.9688 50.25 30.1875 50.25C20.2266 50.25 17.1992 46.5391 12.8047 46.4414C12.5117 47.7109 11.2422 48.6875 9.875 48.6875H3.625C1.86719 48.6875 0.5 47.3203 0.5 45.5625V22.125C0.5 20.4648 1.86719 19 3.625 19H13.1953C15.0508 17.4375 17.6875 13.1406 19.9336 10.8945C21.3008 9.52734 20.9102 0.25 26.9648 0.25C32.5312 0.25 36.2422 3.375 36.2422 10.5039C36.2422 12.3594 35.8516 13.8242 35.3633 15.0938H38.9766C43.6641 15.0938 47.375 19.0977 47.375 23.3945C47.375 25.25 46.8867 26.8125 46.0078 28.2773ZM39.9531 33.5508C42.1016 31.5977 41.8086 28.5703 40.4414 27.1055C41.418 27.1055 42.6875 25.25 42.6875 23.4922C42.5898 21.6367 41.0273 19.7812 38.9766 19.7812H28.8203C28.8203 16.0703 31.5547 14.3125 31.5547 10.5039C31.5547 8.16016 31.5547 4.9375 26.9648 4.9375C25.1094 6.79297 25.9883 11.4805 23.2539 14.2148C20.6172 16.8516 16.8086 23.6875 13.9766 23.6875H13V41.9492C18.1758 41.9492 22.7656 45.5625 29.6992 45.5625H33.4102C36.8281 45.5625 39.3672 43.9023 38.5859 39.2148C40.0508 38.3359 41.2227 35.6016 39.9531 33.5508ZM9.09375 42.4375C9.09375 41.168 8.01953 40.0938 6.75 40.0938C5.38281 40.0938 4.40625 41.168 4.40625 42.4375C4.40625 43.8047 5.38281 44.7812 6.75 44.7812C8.01953 44.7812 9.09375 43.8047 9.09375 42.4375Z" fill="#4054B2"/>
</svg>
