<svg width="35" height="51" viewBox="0 0 35 51" fill="none" xmlns="http://www.w3.org/2000/svg">
<path d="M17.5 8.0625C18.2812 8.0625 19.0625 8.84375 19.0625 9.625C19.0625 10.5039 18.2812 11.1875 17.5 11.1875C13.9844 11.1875 11.25 14.0195 11.25 17.4375C11.25 18.3164 10.4688 19 9.6875 19C8.80859 19 8.125 18.3164 8.125 17.4375C8.125 12.3594 12.3242 8.0625 17.5 8.0625ZM9.6875 45.1719V40.875H25.2148V45.1719C25.2148 45.4648 25.1172 45.7578 25.0195 46.0508L22.5781 49.5664C22.2852 50.0547 21.7969 50.25 21.3086 50.25H13.5938C13.1055 50.25 12.6172 50.0547 12.3242 49.5664L9.88281 46.0508C9.6875 45.7578 9.6875 45.4648 9.6875 45.1719ZM17.5 0.25C26.9727 0.25 34.6875 7.96484 34.6875 17.4375C34.6875 21.832 33.0273 25.7383 30.3906 28.7656C28.7305 30.6211 26.1914 34.5273 25.3125 37.75H20.625C20.625 37.2617 20.625 36.8711 20.8203 36.3828C21.3086 34.625 23.0664 30.0352 26.875 25.7383C28.8281 23.3945 30 20.4648 30 17.4375C30 10.6016 24.3359 4.9375 17.5 4.9375C10.7617 4.9375 4.90234 10.3086 5 17.4375C5 20.4648 6.07422 23.3945 8.02734 25.7383C11.9336 30.1328 13.5938 34.625 14.082 36.3828C14.2773 36.8711 14.2773 37.3594 14.2773 37.75H9.58984C8.71094 34.5273 6.17188 30.6211 4.51172 28.7656C1.875 25.7383 0.3125 21.832 0.3125 17.4375C0.3125 8.35547 7.44141 0.25 17.5 0.25Z" fill="#4054B2"/>
</svg>
