<svg width="33" height="45" viewBox="0 0 33 45" fill="none" xmlns="http://www.w3.org/2000/svg">
<path d="M31.1543 37.6797L32.0332 42.0742C32.1309 42.6602 31.7402 43.2461 31.1543 43.4414C29.9824 43.7344 27.7363 44.125 25.1973 44.125C15.041 44.125 7.42383 37.7773 4.98242 28.9883H2.05273C1.36914 28.9883 0.880859 28.4023 0.880859 27.8164V24.9844C0.880859 24.3984 1.36914 23.8125 2.05273 23.8125H4.10352C4.00586 22.6406 4.00586 21.0781 4.10352 19.7109H2.05273C1.36914 19.7109 0.880859 19.2227 0.880859 18.5391V15.6094C0.880859 15.0234 1.36914 14.4375 2.05273 14.4375H5.27539C8.10742 6.33203 15.7246 0.375 25.1973 0.375C27.248 0.375 29.2012 0.667969 30.373 0.960938C31.0566 1.05859 31.4473 1.74219 31.252 2.42578L30.0801 6.72266C29.9824 7.30859 29.2988 7.69922 28.7129 7.60156C27.834 7.40625 26.4668 7.11328 25.002 7.11328C19.6309 7.11328 15.5293 10.1406 13.5762 14.4375H27.0527C27.834 14.4375 28.3223 15.2188 28.2246 15.9023L27.541 18.832C27.4434 19.3203 26.9551 19.7109 26.3691 19.7109H12.1113C11.916 21.0781 12.0137 22.4453 12.1113 23.8125H25.1973C25.9785 23.8125 26.4668 24.5938 26.3691 25.2773L25.6855 28.0117C25.5879 28.5977 25.0996 28.9883 24.6113 28.9883H13.4785C15.334 33.9688 19.8262 37.2891 25.2949 37.2891C27.0527 37.2891 28.7129 36.9961 29.7871 36.8008C30.373 36.6055 31.0566 37.0938 31.1543 37.6797Z" fill="#4054B2"/>
</svg>
