<svg width="57" height="45" viewBox="0 0 57 45" fill="none" xmlns="http://www.w3.org/2000/svg">
<path d="M52.3281 35.043C53.793 37.9727 55.9414 40.3164 55.9414 40.3164C56.625 41 56.7227 41.9766 56.4297 42.7578C56.0391 43.6367 55.2578 44.125 54.3789 44.125C49.1055 44.125 44.9062 42.1719 42.0742 40.4141C40.2188 40.8047 38.2656 41 36.3125 41C27.8164 41 20.6875 37.0938 17.5625 31.5273C16.6836 31.332 15.707 31.2344 14.8281 31.0391C11.9961 32.7969 7.79688 34.8477 2.62109 34.8477C1.64453 34.8477 0.863281 34.2617 0.472656 33.4805C0.179688 32.6016 0.375 31.625 0.960938 31.0391C0.960938 30.9414 3.10938 28.5977 4.67188 25.668C1.9375 22.9336 0.375 19.6133 0.375 16C0.375 7.40625 9.45703 0.375 20.6875 0.375C29.0859 0.375 36.3125 4.37891 39.3398 10.043C49.1055 11.1172 56.625 17.5625 56.625 25.375C56.625 29.0859 54.9648 32.4062 52.3281 35.043ZM13.9492 25.9609L15.9023 26.4492C17.4648 26.8398 19.0273 26.9375 20.6875 26.9375C29.0859 26.9375 36.3125 21.957 36.3125 16C36.3125 10.1406 29.0859 5.0625 20.6875 5.0625C12.1914 5.0625 5.0625 10.1406 5.0625 16C5.0625 18.832 6.625 20.9805 7.89453 22.25L10.3359 24.6914L8.87109 27.7188C8.57812 28.207 8.28516 28.6953 8.08984 29.1836C9.45703 28.6953 10.9219 28.0117 12.2891 27.0352L13.9492 25.9609ZM49.0078 31.625C50.2773 30.3555 51.9375 28.207 51.9375 25.375C51.9375 20.5898 47.1523 16.4883 40.9023 15.0234C40.9023 15.4141 41 15.707 41 16C41 23.9102 33.3828 30.4531 23.4219 31.5273C26.2539 34.3594 31.0391 36.3125 36.3125 36.3125C37.875 36.3125 39.5352 36.2148 41.0977 35.8242L42.9531 35.3359L44.7109 36.4102C46.0781 37.2891 47.4453 38.0703 48.9102 38.5586C48.6172 38.0703 48.3242 37.582 48.1289 37.0938L46.5664 34.0664L49.0078 31.625Z" fill="#4054B2"/>
</svg>
