<svg width="198" height="50" viewBox="0 0 198 50" fill="none" xmlns="http://www.w3.org/2000/svg">
<g clip-path="url(#clip0_35_1685)">
<path d="M21.2255 16.8707C23.3789 15.119 24.8017 12.4915 24.8017 9.48307C24.8017 4.22793 20.4949 -0.0371094 15.1499 -0.0371094H0.691406V33.7405H15.1499C20.4949 33.7405 24.8017 29.5516 24.8017 24.2965C24.8017 19.0413 23.3789 18.6224 21.2255 16.8707ZM4.95973 4.26601H15.1499C18.1492 4.26601 20.4949 6.62702 20.4949 9.52116C20.4949 12.4153 18.1108 14.8144 15.1499 14.8144H4.95973V4.26601ZM15.1499 29.5516H4.95973V19.0033H15.1499C18.1492 19.0033 20.5718 21.3643 20.5718 24.2965C20.5718 27.2287 18.1492 29.5516 15.1499 29.5516Z" fill="white"/>
<path d="M39.4531 11.2344C33.1852 11.2344 28.1094 16.261 28.1094 22.5063C28.1094 28.7515 33.1852 33.7401 39.4531 33.7401C45.721 33.7401 44.5674 32.8261 46.567 31.2648V33.7401H50.7969V22.5063C50.7969 16.261 45.721 11.2344 39.4531 11.2344ZM39.4531 29.5512C35.5309 29.5512 32.3392 26.3905 32.3392 22.5063C32.3392 18.622 35.5309 15.4613 39.4531 15.4613C43.3754 15.4613 46.567 18.622 46.567 22.5063C46.567 26.3905 43.3754 29.5512 39.4531 29.5512Z" fill="white"/>
<path d="M72.6373 0V13.7091C70.7146 12.1858 68.2152 11.2338 65.5234 11.2338C59.2171 11.2338 54.1797 16.2605 54.1797 22.5057C54.1797 28.7509 59.2555 33.7395 65.5234 33.7395C71.7913 33.7395 76.8672 28.7129 76.8672 22.5057V0H72.6373ZM65.485 29.5506C61.5627 29.5506 58.3711 26.3899 58.3711 22.5057C58.3711 18.6215 61.5627 15.4608 65.485 15.4608C69.4072 15.4608 72.5989 18.6215 72.5989 22.5057C72.5989 26.3899 69.4072 29.5506 65.485 29.5506Z" fill="white"/>
<path d="M98.4776 11.1957H93.0942L84.4422 22.4296L93.0942 33.6634H98.4776L89.7487 22.4296L98.4776 11.1957ZM80.1738 0V33.7776H84.4037V0H80.1738Z" fill="white"/>
<path d="M108.245 11.2344C101.939 11.2344 96.8633 16.261 96.8633 22.5063C96.8633 28.7515 101.939 33.7401 108.245 33.7401C114.552 33.7401 113.36 32.8261 115.359 31.2648V33.7401H119.589V22.5063C119.589 16.261 114.513 11.2344 108.245 11.2344ZM108.245 29.5512C104.323 29.5512 101.132 26.3905 101.132 22.5063C101.132 18.622 104.323 15.4613 108.245 15.4613C112.168 15.4613 115.359 18.622 115.359 22.5063C115.359 26.3905 112.168 29.5512 108.245 29.5512Z" fill="white"/>
<path d="M147.468 11.2344C144.43 11.2344 141.739 12.6053 139.97 14.7759C138.201 12.6053 135.548 11.2344 132.51 11.2344C127.203 11.2344 122.896 15.4994 122.896 20.7546V33.7401H127.203V20.7546C127.203 17.8604 129.587 15.4613 132.51 15.4613C135.432 15.4613 137.855 17.8604 137.855 20.7546V33.7401H142.085V20.7546C142.085 17.8604 144.469 15.4613 147.43 15.4613C150.391 15.4613 152.736 17.8604 152.736 20.7546V33.7401H156.966V20.7546C156.966 15.4994 152.736 11.2344 147.43 11.2344H147.468Z" fill="white"/>
<path d="M183.037 22.5063C183.037 16.3372 177.961 11.2344 171.693 11.2344C165.425 11.2344 160.35 16.3372 160.35 22.5063C160.35 28.6753 165.425 33.7401 171.693 33.7401C177.961 33.7401 180.076 31.1887 181.883 27.4568H176.769C175.462 28.7134 173.693 29.5131 171.693 29.5131C168.502 29.5131 165.81 27.4568 164.926 24.6007H182.845C182.96 23.9533 183.076 23.2298 183.076 22.4682L183.037 22.5063ZM164.926 20.4499C165.81 17.5939 168.502 15.5375 171.693 15.5375C174.885 15.5375 177.538 17.6319 178.461 20.4499H164.887H164.926Z" fill="white"/>
<path d="M186.383 22.5063V33.7401H190.69V22.5063C190.69 18.622 193.843 15.4613 197.765 15.4613V11.2344C191.536 11.2344 186.421 16.261 186.421 22.5063H186.383Z" fill="white"/>
<path d="M101.055 42.4223L99.825 44.669H102.248L101.055 42.4223ZM101.055 42.4223L99.825 44.669H102.248L101.055 42.4223ZM29.1861 42.4223L27.9556 44.669H30.3782L29.1861 42.4223ZM101.055 42.4223L99.825 44.669H102.248L101.055 42.4223ZM101.055 42.4223L99.825 44.669H102.248L101.055 42.4223ZM29.1861 42.4223L27.9556 44.669H30.3782L29.1861 42.4223ZM0 38.1953V50.0003H197.727V38.1953H0ZM7.34459 46.8396H6.46017L3.26854 41.356H4.72976L6.96006 45.3164L9.075 41.356H10.344L7.30614 46.8396H7.34459ZM31.6087 46.8396L30.955 45.6211H27.4557L26.802 46.8396H25.533L28.6478 41.356H29.8783L33.0699 46.8396H31.6087ZM54.4884 46.8396L51.1814 44.4405V46.8396H49.874V41.356H51.1814V43.6409L54.2577 41.356H56.1419L52.4889 43.9455L56.6034 46.8396H54.5269H54.4884ZM80.6367 46.8396H79.4447V43.4124C79.4447 43.2981 79.4447 43.1077 79.4831 42.8412C79.4062 42.9554 79.3293 43.1458 79.1755 43.4124L77.099 46.1542H76.8298L74.7534 43.4124C74.5995 43.222 74.4842 43.0316 74.4073 42.8412C74.4073 43.0696 74.4073 43.222 74.4073 43.3743V46.8016H73.369V41.3179H74.4073L77.0221 44.631L79.5985 41.3179H80.6367V46.8016V46.8396ZM103.44 46.8396L102.786 45.6211H99.2866L98.6329 46.8396H97.3255L100.479 41.356H101.709L104.901 46.8396H103.44ZM128.204 46.8396H127.319L123.243 43.4505C123.051 43.2981 122.897 43.1458 122.782 42.9935C122.782 43.3362 122.82 43.6409 122.82 43.8313V46.8396H121.666V41.356H122.551L126.435 44.5929C126.704 44.8214 126.935 45.0118 127.088 45.2022C127.05 44.7071 127.05 44.3644 127.05 44.2501V41.356H128.204V46.8396ZM147.276 46.4207C147.276 46.6112 147.276 46.6873 147.2 46.7635C147.161 46.8016 147.046 46.8396 146.853 46.8396H145.854C145.661 46.8396 145.584 46.7254 145.584 46.4588V45.583C145.584 45.3926 145.584 45.3164 145.661 45.2783C145.7 45.2402 145.815 45.2022 146.007 45.2022H147.007C147.2 45.2022 147.276 45.3164 147.276 45.583V46.4588V46.4207ZM171.156 46.8396H170.272L166.195 43.4505C166.042 43.2981 165.888 43.1458 165.734 42.9935C165.734 43.3362 165.772 43.6409 165.772 43.8313V46.8396H164.619V41.356H165.503L169.387 44.5929C169.656 44.8214 169.887 45.0118 170.041 45.2022C170.041 44.7071 170.002 44.3644 170.002 44.2501V41.356H171.156V46.8396ZM194.459 46.8396H188.998V41.356H190.306V45.8115H194.459V46.8396ZM99.825 44.631H102.248L101.055 42.3842L99.825 44.631ZM27.9556 44.631H30.3782L29.1861 42.3842L27.9556 44.631ZM101.055 42.4223L99.825 44.669H102.248L101.055 42.4223ZM101.055 42.4223L99.825 44.669H102.248L101.055 42.4223ZM101.055 42.4223L99.825 44.669H102.248L101.055 42.4223ZM101.055 42.4223L99.825 44.669H102.248L101.055 42.4223Z" fill="white"/>
</g>
<defs>
<clipPath id="clip0_35_1685">
<rect width="197.727" height="50" fill="white"/>
</clipPath>
</defs>
</svg>
