<svg width="149" height="98" viewBox="0 0 149 98" fill="none" xmlns="http://www.w3.org/2000/svg">
<path d="M51.3328 17.1198H61.1995V18.9501H57.32V29.2394H55.1866V18.9501H51.3242V17.1198H51.3328ZM60.778 20.464H62.6017V22.1575H62.6361C62.6963 21.918 62.8082 21.6871 62.9716 21.4647C63.135 21.2423 63.3329 21.0285 63.5652 20.8489C63.7974 20.6607 64.0555 20.5153 64.3393 20.3956C64.6232 20.2844 64.9157 20.2245 65.2082 20.2245C65.4318 20.2245 65.5953 20.233 65.6813 20.2416C65.7673 20.2502 65.8533 20.2673 65.948 20.2758V22.1404C65.8103 22.1147 65.6727 22.0976 65.5264 22.0805C65.3802 22.0634 65.2426 22.0548 65.1049 22.0548C64.7781 22.0548 64.4684 22.1233 64.1759 22.2516C63.8834 22.3799 63.634 22.5766 63.4189 22.8246C63.2039 23.0812 63.0318 23.3891 62.9028 23.7654C62.7737 24.1418 62.7135 24.5694 62.7135 25.0569V29.2308H60.7694V20.464L60.778 20.464ZM74.8856 29.2394H72.976V28.0163H72.9415C72.7007 28.461 72.348 28.8117 71.8749 29.0769C71.4018 29.342 70.92 29.4789 70.4297 29.4789C69.2684 29.4789 68.4254 29.1966 67.9093 28.6236C67.3931 28.0505 67.1351 27.1866 67.1351 26.032V20.464H69.0792V25.8438C69.0792 26.6136 69.2254 27.161 69.5265 27.4775C69.8189 27.7939 70.2405 27.9564 70.7738 27.9564C71.1867 27.9564 71.5222 27.8966 71.7975 27.7683C72.0727 27.64 72.2964 27.4775 72.4598 27.2636C72.6319 27.0584 72.7523 26.8018 72.8297 26.511C72.9071 26.2202 72.9415 25.9037 72.9415 25.5616V20.4725H74.8856V29.2394ZM78.1975 26.4254C78.2577 26.9899 78.4728 27.3834 78.8427 27.6143C79.2212 27.8367 79.6685 27.9564 80.1932 27.9564C80.3738 27.9564 80.5803 27.9393 80.8126 27.9137C81.0448 27.888 81.2685 27.8281 81.4663 27.7511C81.6728 27.6742 81.8362 27.5544 81.9739 27.4005C82.1029 27.2465 82.1631 27.0498 82.1545 26.8018C82.1459 26.5537 82.0513 26.3485 81.8792 26.1945C81.7072 26.032 81.4921 25.9122 81.2255 25.8096C80.9588 25.7155 80.6577 25.63 80.3136 25.5616C79.9695 25.4932 79.6255 25.4162 79.2728 25.3392C78.9115 25.2622 78.5588 25.1596 78.2233 25.0484C77.8878 24.9372 77.5867 24.7833 77.3201 24.5865C77.0534 24.3984 76.8383 24.1503 76.6835 23.851C76.5201 23.5516 76.4426 23.1838 76.4426 22.7391C76.4426 22.2601 76.5631 21.8667 76.7953 21.5417C77.0276 21.2166 77.3287 20.9601 77.6814 20.7633C78.0427 20.5666 78.4384 20.4298 78.8771 20.3442C79.3158 20.2673 79.7373 20.2245 80.133 20.2245C80.5889 20.2245 81.0276 20.2758 81.4405 20.3699C81.8534 20.464 82.2319 20.6179 82.5674 20.8403C82.9029 21.0541 83.1782 21.3364 83.4018 21.6785C83.6255 22.0206 83.7631 22.4397 83.8233 22.9272H81.7932C81.6986 22.4654 81.4921 22.1489 81.1566 21.995C80.8212 21.8325 80.4341 21.7555 80.004 21.7555C79.8663 21.7555 79.7029 21.764 79.5136 21.7897C79.3244 21.8154 79.1523 21.8581 78.9803 21.918C78.8168 21.9779 78.6792 22.0719 78.5588 22.1917C78.447 22.3114 78.3867 22.4654 78.3867 22.6621C78.3867 22.9016 78.4728 23.0898 78.6362 23.2352C78.7996 23.3806 79.0147 23.5003 79.2814 23.6029C79.548 23.697 79.8491 23.7825 80.1932 23.851C80.5373 23.9194 80.89 23.9964 81.2513 24.0734C81.604 24.1503 81.948 24.253 82.2921 24.3642C82.6362 24.4753 82.9373 24.6293 83.204 24.826C83.4706 25.0227 83.6857 25.2622 83.8491 25.553C84.0126 25.8438 84.0986 26.2116 84.0986 26.6393C84.0986 27.161 83.9782 27.5972 83.7373 27.965C83.4964 28.3242 83.1868 28.6236 82.8083 28.8459C82.4298 29.0683 81.9997 29.2394 81.5351 29.342C81.0706 29.4446 80.6061 29.496 80.1502 29.496C79.591 29.496 79.0749 29.4361 78.6018 29.3078C78.1287 29.1795 77.7158 28.9913 77.3717 28.7433C77.0276 28.4867 76.7523 28.1702 76.5545 27.7939C76.3566 27.4176 76.2534 26.9643 76.2362 26.4425H78.1975V26.4254ZM84.6147 20.464H86.0857V17.8297H88.0298V20.464H89.7847V21.9094H88.0298V26.5965C88.0298 26.8018 88.0384 26.9728 88.0556 27.1268C88.0728 27.2722 88.1158 27.4005 88.176 27.5031C88.2363 27.6057 88.3309 27.6827 88.4599 27.734C88.5889 27.7854 88.7524 27.811 88.976 27.811C89.1137 27.811 89.2513 27.811 89.389 27.8025C89.5266 27.7939 89.6642 27.7768 89.8019 27.7426V29.2394C89.5868 29.265 89.3717 29.2821 89.1739 29.3078C88.9674 29.3335 88.761 29.342 88.5459 29.342C88.0298 29.342 87.6169 29.2907 87.3072 29.1966C86.9975 29.1025 86.7481 28.9571 86.576 28.769C86.3954 28.5808 86.2836 28.3499 86.2147 28.0676C86.1545 27.7854 86.1115 27.4603 86.1029 27.1011V21.9265H84.6319V20.464H84.6147ZM91.161 20.464H93.0019V21.6528H93.0363C93.3116 21.1397 93.6901 20.7804 94.1804 20.5581C94.6707 20.3357 95.1954 20.2245 95.7718 20.2245C96.4686 20.2245 97.0707 20.3442 97.5868 20.5923C98.103 20.8318 98.5331 21.1653 98.8772 21.593C99.2213 22.0206 99.4707 22.5167 99.6428 23.0812C99.8148 23.6457 99.9008 24.253 99.9008 24.8944C99.9008 25.4846 99.8234 26.0576 99.6686 26.605C99.5137 27.161 99.2815 27.6485 98.9718 28.0762C98.6621 28.5038 98.2664 28.8374 97.7847 29.094C97.303 29.3506 96.7438 29.4789 96.0901 29.4789C95.8062 29.4789 95.5223 29.4532 95.2384 29.4019C94.9546 29.3506 94.6793 29.265 94.4212 29.1538C94.1632 29.0427 93.9137 28.8973 93.6987 28.7176C93.475 28.538 93.2943 28.3328 93.1395 28.1018H93.1051V32.481H91.161V20.464ZM97.9567 24.8602C97.9567 24.4668 97.9051 24.0819 97.8019 23.7056C97.6987 23.3292 97.5438 23.0042 97.3374 22.7134C97.1309 22.4226 96.8729 22.1917 96.5718 22.0206C96.2621 21.8496 95.9094 21.7555 95.5137 21.7555C94.6965 21.7555 94.0772 22.0377 93.6642 22.6022C93.2513 23.1667 93.0449 23.9194 93.0449 24.8602C93.0449 25.305 93.0965 25.7155 93.2083 26.0919C93.3202 26.4682 93.475 26.7932 93.6987 27.0669C93.9137 27.3406 94.1718 27.5544 94.4729 27.7084C94.7739 27.8709 95.1266 27.9479 95.5223 27.9479C95.9696 27.9479 96.3395 27.8538 96.6492 27.6742C96.9589 27.4946 97.2084 27.2551 97.4062 26.9728C97.6041 26.682 97.7503 26.357 97.8363 25.9892C97.9137 25.6214 97.9567 25.2451 97.9567 24.8602ZM101.389 17.1198H103.333V18.9501H101.389V17.1198ZM101.389 20.464H103.333V29.2394H101.389V20.464ZM105.071 17.1198H107.015V29.2394H105.071V17.1198ZM112.976 29.4789C112.271 29.4789 111.643 29.3591 111.092 29.1282C110.542 28.8973 110.077 28.5722 109.69 28.1702C109.312 27.7597 109.019 27.2722 108.821 26.7077C108.623 26.1432 108.52 25.5188 108.52 24.8431C108.52 24.176 108.623 23.5602 108.821 22.9957C109.019 22.4312 109.312 21.9437 109.69 21.5331C110.069 21.1226 110.542 20.8061 111.092 20.5752C111.643 20.3442 112.271 20.2245 112.976 20.2245C113.682 20.2245 114.31 20.3442 114.86 20.5752C115.411 20.8061 115.875 21.1311 116.262 21.5331C116.641 21.9437 116.933 22.4312 117.131 22.9957C117.329 23.5602 117.432 24.176 117.432 24.8431C117.432 25.5188 117.329 26.1432 117.131 26.7077C116.933 27.2722 116.641 27.7597 116.262 28.1702C115.884 28.5808 115.411 28.8973 114.86 29.1282C114.31 29.3591 113.682 29.4789 112.976 29.4789ZM112.976 27.9479C113.406 27.9479 113.785 27.8538 114.103 27.6742C114.421 27.4946 114.679 27.2551 114.886 26.9643C115.092 26.6735 115.239 26.3399 115.342 25.9721C115.436 25.6043 115.488 25.228 115.488 24.8431C115.488 24.4668 115.436 24.099 115.342 23.7227C115.247 23.3463 115.092 23.0213 114.886 22.7305C114.679 22.4397 114.421 22.2088 114.103 22.0292C113.785 21.8496 113.406 21.7555 112.976 21.7555C112.546 21.7555 112.168 21.8496 111.849 22.0292C111.531 22.2088 111.273 22.4483 111.066 22.7305C110.86 23.0213 110.714 23.3463 110.611 23.7227C110.516 24.099 110.464 24.4668 110.464 24.8431C110.464 25.228 110.516 25.6043 110.611 25.9721C110.705 26.3399 110.86 26.6735 111.066 26.9643C111.273 27.2551 111.531 27.4946 111.849 27.6742C112.168 27.8623 112.546 27.9479 112.976 27.9479ZM118 20.464H119.471V17.8297H121.415V20.464H123.17V21.9094H121.415V26.5965C121.415 26.8018 121.424 26.9728 121.441 27.1268C121.458 27.2722 121.501 27.4005 121.561 27.5031C121.621 27.6057 121.716 27.6827 121.845 27.734C121.974 27.7854 122.138 27.811 122.361 27.811C122.499 27.811 122.636 27.811 122.774 27.8025C122.912 27.7939 123.049 27.7768 123.187 27.7426V29.2394C122.972 29.265 122.757 29.2821 122.559 29.3078C122.353 29.3335 122.146 29.342 121.931 29.342C121.415 29.342 121.002 29.2907 120.692 29.1966C120.383 29.1025 120.133 28.9571 119.961 28.769C119.781 28.5808 119.669 28.3499 119.6 28.0676C119.54 27.7854 119.497 27.4603 119.488 27.1011V21.9265H118.017V20.464L118 20.464Z" fill="white"/>
<path d="M49.0624 17.1194H40.1505L37.3978 8.68616L34.6365 17.1194L25.7246 17.1109L32.9419 22.3282L30.1805 30.7529L37.3978 25.5442L44.6064 30.7529L41.8537 22.3282L49.0624 17.1194Z" fill="#00B67A"/>
<path d="M42.4718 24.2362L41.8524 22.3287L37.3965 25.545L42.4718 24.2362Z" fill="#005128"/>
<g clip-path="url(#clip0_264_1548)">
<path d="M34.4247 41.0898H10.377V65.1376H34.4247V41.0898Z" fill="#00B67A"/>
<path d="M60.4774 41.0898H36.4297V65.1376H60.4774V41.0898Z" fill="#00B67A"/>
<path d="M86.5282 41.09H62.4805V65.1377H86.5282V41.09Z" fill="#00B67A"/>
<path d="M112.581 41.0898H88.5332V65.1376H112.581V41.0898Z" fill="#00B67A"/>
<path d="M138.632 41.0898H114.584V65.1376H138.632V41.0898Z" fill="#00B67A"/>
<path d="M22.4011 57.2966L26.0584 56.3697L27.5864 61.0791L22.4011 57.2966ZM30.8178 51.2095H24.38L22.4011 45.1475L20.4222 51.2095H13.9844L19.1947 54.967L17.2158 61.029L22.4261 57.2715L25.6325 54.967L30.8178 51.2095Z" fill="white"/>
<path d="M48.4519 57.2967L52.1091 56.3699L53.6372 61.0792L48.4519 57.2967ZM56.8686 51.2096H50.4308L48.4519 45.1476L46.4729 51.2096H40.0352L45.2455 54.9671L43.2666 61.0291L48.4769 57.2717L51.6833 54.9671L56.8686 51.2096Z" fill="white"/>
<path d="M74.5046 57.2966L78.1619 56.3697L79.6899 61.0791L74.5046 57.2966ZM82.9213 51.2095H76.4835L74.5046 45.1475L72.5257 51.2095H66.0879L71.2982 54.967L69.3193 61.029L74.5297 57.2715L77.736 54.967L82.9213 51.2095Z" fill="white"/>
<path d="M100.555 57.2966L104.213 56.3697L105.741 61.0791L100.555 57.2966ZM108.972 51.2095H102.534L100.555 45.1475L98.5765 51.2095H92.1387L97.349 54.967L95.3701 61.029L100.58 57.2715L103.787 54.967L108.972 51.2095Z" fill="white"/>
<path d="M126.606 57.2966L130.263 56.3697L131.791 61.0791L126.606 57.2966ZM135.023 51.2095H128.585L126.606 45.1475L124.627 51.2095H118.189L123.4 54.967L121.421 61.029L126.631 57.2715L129.838 54.967L135.023 51.2095Z" fill="white"/>
</g>
<path d="M9.46857 86.1219V77.3947H12.6646C13.2839 77.3947 13.7967 77.4969 14.2029 77.7015C14.6092 77.9032 14.9132 78.1773 15.1149 78.5239C15.3166 78.8677 15.4174 79.2555 15.4174 79.6873C15.4174 80.0509 15.3507 80.3577 15.2172 80.6077C15.0836 80.8549 14.9047 81.0538 14.6802 81.2043C14.4586 81.3521 14.2143 81.46 13.9473 81.5282V81.6134C14.237 81.6276 14.5197 81.7214 14.7953 81.8947C15.0737 82.0651 15.3038 82.308 15.4856 82.6234C15.6674 82.9387 15.7583 83.3222 15.7583 83.7739C15.7583 84.22 15.6532 84.6205 15.443 84.9756C15.2356 85.3279 14.9146 85.6077 14.4799 85.8151C14.0453 86.0197 13.4899 86.1219 12.8137 86.1219H9.46857ZM10.7853 84.9927H12.6859C13.3166 84.9927 13.7683 84.8705 14.041 84.6262C14.3137 84.3819 14.4501 84.0765 14.4501 83.71C14.4501 83.4344 14.3805 83.1816 14.2413 82.9515C14.1021 82.7214 13.9032 82.5381 13.6447 82.4018C13.389 82.2654 13.085 82.1972 12.7328 82.1972H10.7853V84.9927ZM10.7853 81.1702H12.5495C12.845 81.1702 13.1106 81.1134 13.3464 80.9998C13.585 80.8862 13.774 80.7271 13.9132 80.5225C14.0552 80.3151 14.1262 80.0708 14.1262 79.7896C14.1262 79.4288 13.9998 79.1262 13.747 78.8819C13.4941 78.6376 13.1064 78.5154 12.5836 78.5154H10.7853V81.1702ZM19.1227 86.2668C18.7079 86.2668 18.3329 86.1901 17.9977 86.0367C17.6625 85.8805 17.3968 85.6546 17.2008 85.3592C17.0076 85.0637 16.911 84.7015 16.911 84.2725C16.911 83.9032 16.9821 83.5992 17.1241 83.3606C17.2662 83.1219 17.4579 82.933 17.6994 82.7938C17.9409 82.6546 18.2108 82.5495 18.5091 82.4785C18.8074 82.4075 19.1113 82.3535 19.421 82.3166C19.813 82.2711 20.1312 82.2342 20.3755 82.2058C20.6199 82.1745 20.7974 82.1248 20.9082 82.0566C21.019 81.9884 21.0744 81.8776 21.0744 81.7242V81.6944C21.0744 81.3222 20.9693 81.0339 20.7591 80.8293C20.5517 80.6248 20.242 80.5225 19.8301 80.5225C19.4011 80.5225 19.063 80.6177 18.8159 80.808C18.5716 80.9955 18.4025 81.2043 18.3088 81.4344L17.1113 81.1617C17.2534 80.764 17.4608 80.443 17.7335 80.1987C18.0091 79.9515 18.3258 79.7725 18.6838 79.6617C19.0417 79.5481 19.4181 79.4913 19.813 79.4913C20.0744 79.4913 20.3514 79.5225 20.644 79.585C20.9395 79.6447 21.215 79.7555 21.4707 79.9174C21.7292 80.0793 21.9409 80.3109 22.1056 80.612C22.2704 80.9103 22.3528 81.2981 22.3528 81.7754V86.1219H21.1085V85.2271H21.0574C20.975 85.3918 20.8514 85.5538 20.6866 85.7129C20.5218 85.8719 20.3102 86.0041 20.0517 86.1092C19.7931 86.2143 19.4835 86.2668 19.1227 86.2668ZM19.3997 85.2441C19.752 85.2441 20.0531 85.1745 20.3031 85.0353C20.5559 84.8961 20.7477 84.7143 20.8784 84.4898C21.0119 84.2626 21.0787 84.0197 21.0787 83.7612V82.9174C21.0332 82.9629 20.9451 83.0055 20.8145 83.0452C20.6866 83.0822 20.5403 83.1148 20.3755 83.1433C20.2108 83.1688 20.0502 83.193 19.894 83.2157C19.7377 83.2356 19.6071 83.2526 19.502 83.2668C19.2548 83.2981 19.0289 83.3506 18.8244 83.4245C18.6227 83.4984 18.4608 83.6049 18.3386 83.7441C18.2193 83.8805 18.1596 84.0623 18.1596 84.2896C18.1596 84.6049 18.2761 84.8435 18.5091 85.0055C18.742 85.1646 19.0389 85.2441 19.3997 85.2441ZM28.9547 81.1745L27.7999 81.3791C27.7516 81.2313 27.6749 81.0907 27.5698 80.9572C27.4675 80.8237 27.3283 80.7143 27.1522 80.6291C26.976 80.5438 26.7559 80.5012 26.4917 80.5012C26.1309 80.5012 25.8297 80.5822 25.5882 80.7441C25.3468 80.9032 25.226 81.1092 25.226 81.362C25.226 81.5808 25.307 81.7569 25.4689 81.8904C25.6309 82.0239 25.8922 82.1333 26.253 82.2185L27.2928 82.4572C27.8951 82.5964 28.3439 82.8109 28.6394 83.1006C28.9348 83.3904 29.0826 83.7668 29.0826 84.2299C29.0826 84.6219 28.9689 84.9714 28.7417 85.2782C28.5172 85.5822 28.2033 85.8208 27.7999 85.9941C27.3993 86.1674 26.9348 86.2541 26.4064 86.2541C25.6735 86.2541 25.0755 86.0978 24.6124 85.7853C24.1493 85.47 23.8652 85.0225 23.7601 84.443L24.9917 84.2555C25.0684 84.5765 25.226 84.8194 25.4647 84.9842C25.7033 85.1461 26.0144 85.2271 26.3979 85.2271C26.8155 85.2271 27.1493 85.1404 27.3993 84.9671C27.6493 84.791 27.7743 84.5765 27.7743 84.3237C27.7743 84.1191 27.6976 83.9472 27.5442 83.808C27.3936 83.6688 27.1621 83.5637 26.8496 83.4927L25.7417 83.2498C25.1309 83.1106 24.6792 82.889 24.3865 82.585C24.0968 82.281 23.9519 81.8961 23.9519 81.4302C23.9519 81.0438 24.0598 80.7058 24.2757 80.416C24.4917 80.1262 24.79 79.9004 25.1706 79.7384C25.5513 79.5737 25.9874 79.4913 26.4789 79.4913C27.1863 79.4913 27.7431 79.6447 28.1493 79.9515C28.5556 80.2555 28.824 80.6631 28.9547 81.1745ZM33.3045 86.2541C32.6596 86.2541 32.1042 86.1163 31.6383 85.8407C31.1752 85.5623 30.8173 85.1717 30.5645 84.6688C30.3145 84.1631 30.1895 83.5708 30.1895 82.8918C30.1895 82.2214 30.3145 81.6305 30.5645 81.1191C30.8173 80.6077 31.1696 80.2086 31.6213 79.9217C32.0758 79.6347 32.6071 79.4913 33.215 79.4913C33.5843 79.4913 33.9423 79.5523 34.2889 79.6745C34.6355 79.7967 34.9466 79.9884 35.2221 80.2498C35.4977 80.5112 35.715 80.8506 35.8741 81.2683C36.0332 81.683 36.1127 82.1873 36.1127 82.781V83.2327H30.9096V82.2782H34.8642C34.8642 81.943 34.796 81.6461 34.6596 81.3876C34.5233 81.1262 34.3315 80.9202 34.0843 80.7697C33.84 80.6191 33.5531 80.5438 33.2235 80.5438C32.8656 80.5438 32.5531 80.6319 32.286 80.808C32.0218 80.9813 31.8173 81.2086 31.6724 81.4898C31.5304 81.7683 31.4593 82.0708 31.4593 82.3975V83.1433C31.4593 83.5808 31.536 83.9529 31.6895 84.2597C31.8457 84.5666 32.063 84.8009 32.3414 84.9629C32.6199 85.1219 32.9451 85.2015 33.3173 85.2015C33.5588 85.2015 33.7789 85.1674 33.9778 85.0992C34.1767 85.0282 34.3485 84.9231 34.4934 84.7839C34.6383 84.6447 34.7491 84.4728 34.8258 84.2683L36.0318 84.4856C35.9352 84.8407 35.7619 85.1518 35.5119 85.4188C35.2647 85.683 34.9537 85.889 34.5787 86.0367C34.2065 86.1816 33.7818 86.2541 33.3045 86.2541ZM39.9767 86.2498C39.4483 86.2498 38.9767 86.1148 38.562 85.845C38.15 85.5722 37.8262 85.1844 37.5904 84.6816C37.3574 84.1759 37.2409 83.5694 37.2409 82.862C37.2409 82.1546 37.3588 81.5495 37.5946 81.0467C37.8333 80.5438 38.16 80.1589 38.5748 79.8918C38.9895 79.6248 39.4597 79.4913 39.9853 79.4913C40.3915 79.4913 40.7182 79.5594 40.9654 79.6958C41.2154 79.8293 41.4086 79.9856 41.5449 80.1646C41.6841 80.3435 41.7921 80.5012 41.8688 80.6376H41.9455V77.3947H43.2196V86.1219H41.9753V85.1035H41.8688C41.7921 85.2427 41.6813 85.4018 41.5364 85.5808C41.3944 85.7597 41.1983 85.916 40.9483 86.0495C40.6983 86.183 40.3745 86.2498 39.9767 86.2498ZM40.258 85.1631C40.6245 85.1631 40.9341 85.0666 41.187 84.8734C41.4426 84.6773 41.6358 84.406 41.7665 84.0594C41.9 83.7129 41.9668 83.3094 41.9668 82.8492C41.9668 82.3947 41.9015 81.9969 41.7708 81.656C41.6401 81.3151 41.4483 81.0495 41.1955 80.8592C40.9426 80.6688 40.6301 80.5737 40.258 80.5737C39.8745 80.5737 39.5549 80.6731 39.2992 80.8719C39.0435 81.0708 38.8503 81.3421 38.7196 81.6859C38.5918 82.0296 38.5279 82.4174 38.5279 82.8492C38.5279 83.2867 38.5932 83.6802 38.7239 84.0296C38.8546 84.3791 39.0478 84.656 39.3034 84.8606C39.562 85.0623 39.8801 85.1631 40.258 85.1631ZM50.9711 86.2541C50.3574 86.2541 49.8219 86.1134 49.3645 85.8322C48.9071 85.5509 48.552 85.1575 48.2992 84.6518C48.0463 84.1461 47.9199 83.5552 47.9199 82.8791C47.9199 82.2001 48.0463 81.6063 48.2992 81.0978C48.552 80.5893 48.9071 80.1944 49.3645 79.9131C49.8219 79.6319 50.3574 79.4913 50.9711 79.4913C51.5847 79.4913 52.1202 79.6319 52.5776 79.9131C53.035 80.1944 53.3901 80.5893 53.6429 81.0978C53.8958 81.6063 54.0222 82.2001 54.0222 82.8791C54.0222 83.5552 53.8958 84.1461 53.6429 84.6518C53.3901 85.1575 53.035 85.5509 52.5776 85.8322C52.1202 86.1134 51.5847 86.2541 50.9711 86.2541ZM50.9753 85.1844C51.373 85.1844 51.7026 85.0793 51.964 84.8691C52.2253 84.6589 52.4185 84.3791 52.5435 84.0296C52.6713 83.6802 52.7353 83.2952 52.7353 82.8748C52.7353 82.4572 52.6713 82.0737 52.5435 81.7242C52.4185 81.3719 52.2253 81.0893 51.964 80.8762C51.7026 80.6631 51.373 80.5566 50.9753 80.5566C50.5748 80.5566 50.2424 80.6631 49.9782 80.8762C49.7168 81.0893 49.5222 81.3719 49.3944 81.7242C49.2694 82.0737 49.2069 82.4572 49.2069 82.8748C49.2069 83.2952 49.2694 83.6802 49.3944 84.0296C49.5222 84.3791 49.7168 84.6589 49.9782 84.8691C50.2424 85.0793 50.5748 85.1844 50.9753 85.1844ZM56.7186 82.2356V86.1219H55.4444V79.5765H56.6674V80.6418H56.7484C56.899 80.2952 57.1348 80.0168 57.4558 79.8066C57.7797 79.5964 58.1873 79.4913 58.6788 79.4913C59.1248 79.4913 59.5154 79.585 59.8507 79.7725C60.1859 79.9572 60.4458 80.2327 60.6305 80.5992C60.8152 80.9657 60.9075 81.4188 60.9075 81.9586V86.1219H59.6333V82.112C59.6333 81.6376 59.5098 81.2668 59.2626 80.9998C59.0154 80.7299 58.676 80.595 58.2441 80.595C57.9487 80.595 57.6859 80.6589 57.4558 80.7867C57.2285 80.9146 57.0481 81.1021 56.9146 81.3492C56.7839 81.5935 56.7186 81.889 56.7186 82.2356ZM69.0861 77.3947V86.1219H67.7651V78.7157H67.714L65.6259 80.0793V78.818L67.8034 77.3947H69.0861ZM74.4853 86.2668C73.812 86.264 73.2367 86.0864 72.7594 85.7342C72.2821 85.3819 71.9171 84.8691 71.6642 84.1958C71.4114 83.5225 71.285 82.7114 71.285 81.7626C71.285 80.8166 71.4114 80.0083 71.6642 79.3379C71.9199 78.6674 72.2864 78.156 72.7637 77.8038C73.2438 77.4515 73.8176 77.2754 74.4853 77.2754C75.1529 77.2754 75.7253 77.4529 76.2026 77.808C76.6799 78.1603 77.0449 78.6717 77.2978 79.3421C77.5534 80.0097 77.6813 80.8166 77.6813 81.7626C77.6813 82.7143 77.5549 83.5268 77.302 84.2001C77.0492 84.8705 76.6841 85.3833 76.2069 85.7384C75.7296 86.0907 75.1557 86.2668 74.4853 86.2668ZM74.4853 85.1291C75.0762 85.1291 75.5378 84.8407 75.8702 84.264C76.2054 83.6873 76.373 82.8535 76.373 81.7626C76.373 81.0381 76.2963 80.4259 76.1429 79.9259C75.9924 79.4231 75.775 79.0424 75.4909 78.7839C75.2097 78.5225 74.8745 78.3918 74.4853 78.3918C73.8972 78.3918 73.4355 78.6816 73.1003 79.2612C72.7651 79.8407 72.5961 80.6745 72.5932 81.7626C72.5932 82.4898 72.6685 83.1049 72.8191 83.6077C72.9725 84.1077 73.1898 84.487 73.4711 84.7455C73.7523 85.0012 74.0904 85.1291 74.4853 85.1291ZM82.0737 86.2413C81.5396 86.2413 81.0595 86.139 80.6333 85.9344C80.21 85.7271 79.872 85.443 79.6191 85.0822C79.3663 84.7214 79.2314 84.3094 79.2143 83.8464H80.4927C80.524 84.2214 80.6902 84.5296 80.9913 84.7711C81.2924 85.0126 81.6532 85.1333 82.0737 85.1333C82.4089 85.1333 82.7058 85.0566 82.9643 84.9032C83.2257 84.7469 83.4302 84.5325 83.5779 84.2597C83.7285 83.987 83.8038 83.6759 83.8038 83.3265C83.8038 82.9714 83.7271 82.6546 83.5737 82.3762C83.4203 82.0978 83.2086 81.8791 82.9387 81.72C82.6717 81.5609 82.3649 81.4799 82.0183 81.4771C81.7541 81.4771 81.4885 81.5225 81.2214 81.6134C80.9544 81.7043 80.7385 81.8237 80.5737 81.9714L79.3677 81.7924L79.8578 77.3947H84.6561V78.5239H80.9529L80.676 80.9657H80.7271C80.8975 80.8009 81.1234 80.6631 81.4047 80.5523C81.6887 80.4416 81.9927 80.3862 82.3166 80.3862C82.8478 80.3862 83.3208 80.5126 83.7356 80.7654C84.1532 81.0183 84.4814 81.3634 84.72 81.8009C84.9615 82.2356 85.0808 82.7356 85.0779 83.3009C85.0808 83.8663 84.9529 84.3705 84.6944 84.8137C84.4387 85.2569 84.0836 85.6063 83.6291 85.862C83.1774 86.1148 82.6589 86.2413 82.0737 86.2413ZM89.6728 86.2668C88.9995 86.264 88.4242 86.0864 87.9469 85.7342C87.4696 85.3819 87.1046 84.8691 86.8517 84.1958C86.5989 83.5225 86.4725 82.7114 86.4725 81.7626C86.4725 80.8166 86.5989 80.0083 86.8517 79.3379C87.1074 78.6674 87.4739 78.156 87.9512 77.8038C88.4313 77.4515 89.0051 77.2754 89.6728 77.2754C90.3404 77.2754 90.9128 77.4529 91.3901 77.808C91.8674 78.1603 92.2324 78.6717 92.4853 79.3421C92.7409 80.0097 92.8688 80.8166 92.8688 81.7626C92.8688 82.7143 92.7424 83.5268 92.4895 84.2001C92.2367 84.8705 91.8716 85.3833 91.3944 85.7384C90.9171 86.0907 90.3432 86.2668 89.6728 86.2668ZM89.6728 85.1291C90.2637 85.1291 90.7253 84.8407 91.0577 84.264C91.3929 83.6873 91.5605 82.8535 91.5605 81.7626C91.5605 81.0381 91.4838 80.4259 91.3304 79.9259C91.1799 79.4231 90.9625 79.0424 90.6784 78.7839C90.3972 78.5225 90.062 78.3918 89.6728 78.3918C89.0847 78.3918 88.623 78.6816 88.2878 79.2612C87.9526 79.8407 87.7836 80.6745 87.7807 81.7626C87.7807 82.4898 87.856 83.1049 88.0066 83.6077C88.16 84.1077 88.3773 84.487 88.6586 84.7455C88.9398 85.0012 89.2779 85.1291 89.6728 85.1291ZM97.8365 86.1219V79.5765H98.8081V80.5651H98.8762C98.9956 80.2413 99.2115 79.9785 99.524 79.7768C99.8365 79.5751 100.189 79.4742 100.581 79.4742C100.655 79.4742 100.747 79.4756 100.858 79.4785C100.969 79.4813 101.052 79.4856 101.109 79.4913V80.514C101.075 80.5055 100.997 80.4927 100.875 80.4756C100.756 80.4558 100.629 80.4458 100.496 80.4458C100.177 80.4458 99.8933 80.5126 99.6433 80.6461C99.3961 80.7768 99.2001 80.9586 99.0552 81.1916C98.9132 81.4217 98.8422 81.6844 98.8422 81.9799V86.1219H97.8365ZM104.846 86.2583C104.216 86.2583 103.672 86.1191 103.214 85.8407C102.76 85.5594 102.409 85.1674 102.162 84.6646C101.917 84.1589 101.795 83.5708 101.795 82.9004C101.795 82.2299 101.917 81.639 102.162 81.1276C102.409 80.6134 102.753 80.2129 103.193 79.9259C103.636 79.6362 104.153 79.4913 104.744 79.4913C105.085 79.4913 105.422 79.5481 105.754 79.6617C106.086 79.7754 106.389 79.96 106.662 80.2157C106.934 80.4685 107.152 80.8038 107.314 81.2214C107.476 81.639 107.557 82.1532 107.557 82.764V83.1901H102.511V82.3208H106.534C106.534 81.9515 106.46 81.6219 106.312 81.3322C106.167 81.0424 105.96 80.8137 105.69 80.6461C105.423 80.4785 105.108 80.3947 104.744 80.3947C104.344 80.3947 103.997 80.4941 103.704 80.693C103.415 80.889 103.192 81.1447 103.035 81.46C102.879 81.7754 102.801 82.1134 102.801 82.4742V83.0538C102.801 83.5481 102.886 83.9671 103.057 84.3109C103.23 84.6518 103.47 84.9117 103.777 85.0907C104.084 85.2668 104.44 85.3549 104.846 85.3549C105.111 85.3549 105.349 85.318 105.562 85.2441C105.778 85.1674 105.964 85.0538 106.121 84.9032C106.277 84.7498 106.398 84.5594 106.483 84.3322L107.454 84.6049C107.352 84.9344 107.18 85.2242 106.939 85.4742C106.697 85.7214 106.399 85.9146 106.044 86.0538C105.689 86.1901 105.29 86.2583 104.846 86.2583ZM114.24 79.5765L111.819 86.1219H110.796L108.376 79.5765H109.467L111.274 84.7924H111.342L113.149 79.5765H114.24ZM115.567 86.1219V79.5765H116.573V86.1219H115.567ZM116.078 78.4856C115.882 78.4856 115.713 78.4188 115.571 78.2853C115.432 78.1518 115.362 77.9913 115.362 77.8038C115.362 77.6163 115.432 77.4558 115.571 77.3222C115.713 77.1887 115.882 77.1219 116.078 77.1219C116.274 77.1219 116.442 77.1887 116.581 77.3222C116.723 77.4558 116.794 77.6163 116.794 77.8038C116.794 77.9913 116.723 78.1518 116.581 78.2853C116.442 78.4188 116.274 78.4856 116.078 78.4856ZM121.159 86.2583C120.528 86.2583 119.984 86.1191 119.527 85.8407C119.072 85.5594 118.721 85.1674 118.474 84.6646C118.23 84.1589 118.108 83.5708 118.108 82.9004C118.108 82.2299 118.23 81.639 118.474 81.1276C118.721 80.6134 119.065 80.2129 119.506 79.9259C119.949 79.6362 120.466 79.4913 121.057 79.4913C121.398 79.4913 121.734 79.5481 122.067 79.6617C122.399 79.7754 122.702 79.96 122.974 80.2157C123.247 80.4685 123.464 80.8038 123.626 81.2214C123.788 81.639 123.869 82.1532 123.869 82.764V83.1901H118.824V82.3208H122.846C122.846 81.9515 122.773 81.6219 122.625 81.3322C122.48 81.0424 122.273 80.8137 122.003 80.6461C121.736 80.4785 121.42 80.3947 121.057 80.3947C120.656 80.3947 120.309 80.4941 120.017 80.693C119.727 80.889 119.504 81.1447 119.348 81.46C119.192 81.7754 119.113 82.1134 119.113 82.4742V83.0538C119.113 83.5481 119.199 83.9671 119.369 84.3109C119.542 84.6518 119.782 84.9117 120.089 85.0907C120.396 85.2668 120.753 85.3549 121.159 85.3549C121.423 85.3549 121.662 85.318 121.875 85.2441C122.091 85.1674 122.277 85.0538 122.433 84.9032C122.589 84.7498 122.71 84.5594 122.795 84.3322L123.767 84.6049C123.665 84.9344 123.493 85.2242 123.251 85.4742C123.01 85.7214 122.711 85.9146 122.356 86.0538C122.001 86.1901 121.602 86.2583 121.159 86.2583ZM126.882 86.1219L124.888 79.5765H125.944L127.359 84.5879H127.427L128.825 79.5765H129.899L131.28 84.5708H131.348L132.763 79.5765H133.819L131.825 86.1219H130.836L129.405 81.0935H129.302L127.871 86.1219H126.882ZM139.785 81.0424L138.882 81.2981C138.825 81.1475 138.741 81.0012 138.631 80.8592C138.523 80.7143 138.375 80.595 138.187 80.5012C138 80.4075 137.76 80.3606 137.467 80.3606C137.067 80.3606 136.733 80.4529 136.466 80.6376C136.202 80.8194 136.069 81.0509 136.069 81.3322C136.069 81.5822 136.16 81.7796 136.342 81.9245C136.524 82.0694 136.808 82.1901 137.194 82.2867L138.166 82.5254C138.751 82.6674 139.187 82.8847 139.474 83.1773C139.761 83.4671 139.905 83.8407 139.905 84.2981C139.905 84.6731 139.797 85.0083 139.581 85.3038C139.368 85.5992 139.069 85.8322 138.686 86.0026C138.302 86.1731 137.856 86.2583 137.348 86.2583C136.68 86.2583 136.128 86.1134 135.69 85.8237C135.253 85.5339 134.976 85.1106 134.859 84.5538L135.814 84.3151C135.905 84.6674 136.077 84.9316 136.329 85.1077C136.585 85.2839 136.919 85.3719 137.331 85.3719C137.8 85.3719 138.172 85.2725 138.447 85.0737C138.726 84.8719 138.865 84.6305 138.865 84.3492C138.865 84.1219 138.785 83.9316 138.626 83.7782C138.467 83.6219 138.223 83.5055 137.893 83.4288L136.802 83.1731C136.203 83.031 135.763 82.8109 135.481 82.5126C135.203 82.2114 135.064 81.835 135.064 81.3833C135.064 81.014 135.167 80.6873 135.375 80.4032C135.585 80.1191 135.871 79.8961 136.231 79.7342C136.595 79.5722 137.007 79.4913 137.467 79.4913C138.115 79.4913 138.623 79.6333 138.993 79.9174C139.365 80.2015 139.629 80.5765 139.785 81.0424Z" fill="white"/>
<path d="M64.9355 88.5083H140.498V89.3265H64.9355V88.5083Z" fill="white"/>
<defs>
<clipPath id="clip0_264_1548">
<rect width="128.255" height="24.0478" fill="white" transform="translate(10.377 41.5793)"/>
</clipPath>
</defs>
</svg>
