<svg xmlns="http://www.w3.org/2000/svg" width="77" height="32" viewBox="0 0 77 32" fill="none">
    <g clip-path="url(#clip0_208_771)">
        <mask id="mask0_208_771" style="mask-type:luminance" maskUnits="userSpaceOnUse" x="0" y="0" width="76"
        height="32">
        <path d="M0.722656 0H75.8471V32H0.722656V0Z" fill="white" />
        </mask>
        <g mask="url(#mask0_208_771)">
        <path
            d="M19.192 11.9379H10.4258V14.5397H16.6427C16.336 18.1877 13.3004 19.7433 10.4364 19.7433C6.77155 19.7433 3.57421 16.8597 3.57421 12.8179C3.57421 8.88015 6.62221 5.84815 10.4453 5.84815C13.3938 5.84815 15.1315 7.72815 15.1315 7.72815L16.9529 5.84192C16.9529 5.84192 14.6151 3.23926 10.3511 3.23926C4.92266 3.23926 0.722656 7.82237 0.722656 12.7708C0.722656 17.6215 4.67377 22.3504 10.4898 22.3504C15.6062 22.3504 19.3511 18.8464 19.3511 13.6641C19.3511 12.5708 19.192 11.9379 19.192 11.9379Z"
            fill="#4285F4" />
        <path
            d="M26.3743 10.0552C22.777 10.0552 20.1992 12.8667 20.1992 16.1467C20.1992 19.4747 22.6997 22.3387 26.4161 22.3387C29.7814 22.3387 32.5379 19.7672 32.5379 16.2178C32.5379 12.1503 29.3317 10.0552 26.3743 10.0552ZM26.4099 12.4676C28.1788 12.4676 29.8552 13.8978 29.8552 16.2018C29.8552 18.4578 28.1859 19.9281 26.4019 19.9281C24.4419 19.9281 22.8952 18.3583 22.8952 16.1841C22.8952 14.0561 24.4223 12.4676 26.4099 12.4676Z"
            fill="#EA4335" />
        <path
            d="M39.8031 10.0552C36.2067 10.0552 33.6289 12.8667 33.6289 16.1467C33.6289 19.4747 36.1293 22.3387 39.8458 22.3387C43.2102 22.3387 45.9667 19.7672 45.9667 16.2178C45.9667 12.1503 42.7605 10.0552 39.8031 10.0552ZM39.8387 12.4676C41.6076 12.4676 43.284 13.8978 43.284 16.2018C43.284 18.4578 41.6156 19.9281 39.8307 19.9281C37.8707 19.9281 36.324 18.3583 36.324 16.1841C36.324 14.0561 37.8502 12.4676 39.8387 12.4676Z"
            fill="#FBBC05" />
        <path
            d="M52.975 10.0615C49.6737 10.0615 47.0781 12.9531 47.0781 16.1984C47.0781 19.8962 50.087 22.3477 52.9181 22.3477C54.6692 22.3477 55.5999 21.6526 56.287 20.8544V22.066C56.287 24.1851 54.9999 25.4544 53.0577 25.4544C51.1821 25.4544 50.2408 24.0589 49.9137 23.2677L47.5528 24.2544C48.391 26.0251 50.0763 27.8722 53.0772 27.8722C56.3599 27.8722 58.8621 25.8037 58.8621 21.4677V10.4304H56.287V11.4704C55.4959 10.6171 54.4123 10.0615 52.975 10.0615ZM53.2141 12.4695C54.8328 12.4695 56.4941 13.8509 56.4941 16.2117C56.4941 18.6109 54.8363 19.9335 53.1786 19.9335C51.4186 19.9335 49.7803 18.5042 49.7803 16.2349C49.7803 13.8766 51.4817 12.4695 53.2141 12.4695Z"
            fill="#4285F4" />
        <path
            d="M70.3118 10.0464C67.1971 10.0464 64.582 12.5246 64.582 16.1806C64.582 20.0499 67.4976 22.3442 70.6105 22.3442C73.2096 22.3442 74.8043 20.9219 75.7563 19.6491L73.6327 18.2357C73.0816 19.0908 72.1607 19.9264 70.6238 19.9264C68.8967 19.9264 68.1029 18.9815 67.6105 18.0651L75.8469 14.6473L75.4203 13.6464C74.6238 11.6846 72.7678 10.0464 70.3118 10.0464ZM70.4185 12.4091C71.5411 12.4091 72.3482 13.0055 72.6914 13.7211L67.1918 16.0197C66.9545 14.2402 68.6407 12.4091 70.4185 12.4091Z"
            fill="#EA4335" />
        <path d="M60.6562 21.9799H63.362V3.875H60.6562V21.9799Z" fill="#34A853" />
        </g>
    </g>
    <defs>
        <clipPath id="clip0_208_771">
        <rect width="75.5556" height="32" fill="white" transform="translate(0.722656)" />
        </clipPath>
    </defs>
</svg>
