<svg width="14" height="15" viewBox="0 0 14 15" fill="none" xmlns="http://www.w3.org/2000/svg" class="absolute -bottom-0 -right-0">
    <g clip-path="url(#clip0_35_2069)">
        <rect y="0.589844" width="14" height="14" rx="7" fill="white"></rect>
        <path d="M13.8336 7.72098C13.8336 7.14741 13.7871 6.72885 13.6864 6.2948H7.13672V8.88362H10.9812C10.9037 9.52698 10.4852 10.4959 9.55503 11.1469L9.54199 11.2336L11.6129 12.8379L11.7563 12.8522C13.074 11.6353 13.8336 9.84476 13.8336 7.72098Z" fill="#4285F4"></path>
        <path d="M7.13617 14.5417C9.01965 14.5417 10.6008 13.9216 11.7558 12.852L9.55448 11.1467C8.96541 11.5575 8.17479 11.8443 7.13617 11.8443C5.29143 11.8443 3.72572 10.6274 3.16759 8.94543L3.08579 8.95238L0.932457 10.6189L0.904297 10.6971C2.05144 12.9759 4.40777 14.5417 7.13617 14.5417Z" fill="#34A853"></path>
        <path d="M3.16754 8.9456C3.02027 8.51154 2.93504 8.04644 2.93504 7.5659C2.93504 7.08531 3.02027 6.62026 3.15979 6.18621L3.15589 6.09376L0.975576 4.40051L0.90424 4.43444C0.431446 5.38009 0.160156 6.442 0.160156 7.5659C0.160156 8.6898 0.431446 9.75167 0.90424 10.6973L3.16754 8.9456Z" fill="#FBBC05"></path>
        <path d="M7.13617 3.28719C8.44607 3.28719 9.32968 3.85302 9.83352 4.32587L11.8023 2.40359C10.5932 1.27969 9.01965 0.589844 7.13617 0.589844C4.40777 0.589844 2.05144 2.15555 0.904297 4.43434L3.15985 6.1861C3.72572 4.50413 5.29143 3.28719 7.13617 3.28719Z" fill="#EB4335"></path>
    </g>
    <defs>
        <clipPath id="clip0_35_2069">
            <rect y="0.589844" width="14" height="14" rx="7" fill="white"></rect>
        </clipPath>
    </defs>
</svg>
