<svg width="107" height="18" viewBox="0 0 107 18" fill="none" xmlns="http://www.w3.org/2000/svg">
    <g clip-path="url(#clip0_208_835)">
        <mask id="mask0_208_835" style="mask-type:luminance" maskUnits="userSpaceOnUse" x="0" y="0" width="19"
        height="18">
        <path d="M18.5 0H0.5V18H18.5V0Z" fill="white" />
        </mask>
        <g mask="url(#mask0_208_835)">
        <path
            d="M9.27553 14.711L5.05838 16.9276C4.95213 16.9833 4.83239 17.0082 4.71272 16.9995C4.59306 16.9907 4.47823 16.9487 4.38124 16.878C4.28424 16.8074 4.20895 16.711 4.16389 16.5997C4.11882 16.4885 4.10579 16.3669 4.12624 16.2487L4.93238 11.5559C4.95006 11.453 4.94245 11.3474 4.91019 11.2482C4.87793 11.149 4.82201 11.0591 4.74724 10.9863L1.33495 7.66145C1.249 7.57773 1.18819 7.47163 1.1594 7.35515C1.13062 7.23868 1.135 7.11647 1.17206 7.00236C1.20911 6.88824 1.27737 6.78677 1.36909 6.70944C1.46082 6.63209 1.57236 6.58197 1.6911 6.56473L6.40453 5.87945C6.50773 5.86462 6.60578 5.82493 6.69021 5.76378C6.77466 5.70263 6.84297 5.62187 6.88924 5.52845L8.99781 1.2573C9.05099 1.14998 9.13311 1.05966 9.23487 0.99651C9.33665 0.933363 9.45404 0.899902 9.57381 0.899902C9.69358 0.899902 9.81098 0.933363 9.91274 0.99651C10.0145 1.05966 10.0966 1.14998 10.1498 1.2573L12.2597 5.52716C12.3058 5.62041 12.3739 5.70108 12.4581 5.76223C12.5423 5.82336 12.6401 5.86314 12.7431 5.87816L17.4566 6.56345C17.5752 6.58069 17.6868 6.6308 17.7785 6.70815C17.8703 6.78549 17.9385 6.88696 17.9756 7.00108C18.0126 7.11518 18.017 7.23739 17.9882 7.35386C17.9594 7.47035 17.8986 7.57645 17.8127 7.66015L14.4017 10.985C14.3271 11.0577 14.2713 11.1473 14.2391 11.2463C14.2068 11.3453 14.1991 11.4507 14.2166 11.5533L15.0227 16.2475C15.0433 16.3659 15.0303 16.4876 14.9852 16.5991C14.9402 16.7104 14.8647 16.807 14.7675 16.8777C14.6703 16.9484 14.5552 16.9905 14.4353 16.999C14.3154 17.0076 14.1955 16.9824 14.0893 16.9263L9.87338 14.7097C9.78119 14.6613 9.6786 14.6359 9.57446 14.6359C9.47031 14.6359 9.36773 14.6613 9.27553 14.7097V14.711Z"
            fill="#FCBF02" />
        </g>
    </g>
    <g clip-path="url(#clip1_208_835)">
        <mask id="mask1_208_835" style="mask-type:luminance" maskUnits="userSpaceOnUse" x="22" y="0" width="19"
        height="18">
        <path d="M40.5 0H22.5V18H40.5V0Z" fill="white" />
        </mask>
        <g mask="url(#mask1_208_835)">
        <path
            d="M31.2755 14.711L27.0584 16.9276C26.9521 16.9833 26.8324 17.0082 26.7127 16.9995C26.5931 16.9907 26.4782 16.9487 26.3812 16.878C26.2842 16.8074 26.209 16.711 26.1639 16.5997C26.1188 16.4885 26.1058 16.3669 26.1262 16.2487L26.9324 11.5559C26.9501 11.453 26.9425 11.3474 26.9102 11.2482C26.8779 11.149 26.822 11.0591 26.7472 10.9863L23.335 7.66145C23.249 7.57773 23.1882 7.47163 23.1594 7.35515C23.1306 7.23868 23.135 7.11647 23.1721 7.00236C23.2091 6.88824 23.2774 6.78677 23.3691 6.70944C23.4608 6.63209 23.5724 6.58197 23.6911 6.56473L28.4045 5.87945C28.5077 5.86462 28.6058 5.82493 28.6902 5.76378C28.7747 5.70263 28.843 5.62187 28.8892 5.52845L30.9978 1.2573C31.051 1.14998 31.1331 1.05966 31.2349 0.99651C31.3367 0.933363 31.454 0.899902 31.5738 0.899902C31.6936 0.899902 31.811 0.933363 31.9127 0.99651C32.0145 1.05966 32.0966 1.14998 32.1498 1.2573L34.2597 5.52716C34.3058 5.62041 34.3739 5.70108 34.4581 5.76223C34.5423 5.82336 34.6401 5.86314 34.7431 5.87816L39.4566 6.56345C39.5752 6.58069 39.6868 6.6308 39.7785 6.70815C39.8703 6.78549 39.9385 6.88696 39.9756 7.00108C40.0126 7.11518 40.017 7.23739 39.9882 7.35386C39.9594 7.47035 39.8986 7.57645 39.8127 7.66015L36.4017 10.985C36.3271 11.0577 36.2713 11.1473 36.2391 11.2463C36.2068 11.3453 36.1991 11.4507 36.2166 11.5533L37.0227 16.2475C37.0433 16.3659 37.0303 16.4876 36.9852 16.5991C36.9402 16.7104 36.8647 16.807 36.7675 16.8777C36.6703 16.9484 36.5552 16.9905 36.4353 16.999C36.3154 17.0076 36.1955 16.9824 36.0893 16.9263L31.8734 14.7097C31.7812 14.6613 31.6786 14.6359 31.5745 14.6359C31.4703 14.6359 31.3677 14.6613 31.2755 14.7097V14.711Z"
            fill="#FCBF02" />
        </g>
    </g>
    <g clip-path="url(#clip2_208_835)">
        <mask id="mask2_208_835" style="mask-type:luminance" maskUnits="userSpaceOnUse" x="44" y="0" width="19"
        height="18">
        <path d="M62.5 0H44.5V18H62.5V0Z" fill="white" />
        </mask>
        <g mask="url(#mask2_208_835)">
        <path
            d="M53.2755 14.711L49.0584 16.9276C48.9521 16.9833 48.8324 17.0082 48.7127 16.9995C48.5931 16.9907 48.4782 16.9487 48.3812 16.878C48.2842 16.8074 48.209 16.711 48.1639 16.5997C48.1188 16.4885 48.1058 16.3669 48.1262 16.2487L48.9324 11.5559C48.9501 11.453 48.9425 11.3474 48.9102 11.2482C48.8779 11.149 48.822 11.0591 48.7472 10.9863L45.335 7.66145C45.249 7.57773 45.1882 7.47163 45.1594 7.35515C45.1306 7.23868 45.135 7.11647 45.1721 7.00236C45.2091 6.88824 45.2774 6.78677 45.3691 6.70944C45.4608 6.63209 45.5724 6.58197 45.6911 6.56473L50.4045 5.87945C50.5077 5.86462 50.6058 5.82493 50.6902 5.76378C50.7747 5.70263 50.843 5.62187 50.8892 5.52845L52.9978 1.2573C53.051 1.14998 53.1331 1.05966 53.2349 0.99651C53.3367 0.933363 53.454 0.899902 53.5738 0.899902C53.6936 0.899902 53.811 0.933363 53.9127 0.99651C54.0145 1.05966 54.0966 1.14998 54.1498 1.2573L56.2597 5.52716C56.3058 5.62041 56.3739 5.70108 56.4581 5.76223C56.5423 5.82336 56.6401 5.86314 56.7431 5.87816L61.4566 6.56345C61.5752 6.58069 61.6868 6.6308 61.7785 6.70815C61.8703 6.78549 61.9385 6.88696 61.9756 7.00108C62.0126 7.11518 62.017 7.23739 61.9882 7.35386C61.9594 7.47035 61.8986 7.57645 61.8127 7.66015L58.4017 10.985C58.3271 11.0577 58.2713 11.1473 58.2391 11.2463C58.2068 11.3453 58.1991 11.4507 58.2166 11.5533L59.0227 16.2475C59.0433 16.3659 59.0303 16.4876 58.9852 16.5991C58.9402 16.7104 58.8647 16.807 58.7675 16.8777C58.6703 16.9484 58.5552 16.9905 58.4353 16.999C58.3154 17.0076 58.1955 16.9824 58.0893 16.9263L53.8734 14.7097C53.7812 14.6613 53.6786 14.6359 53.5745 14.6359C53.4703 14.6359 53.3677 14.6613 53.2755 14.7097V14.711Z"
            fill="#FCBF02" />
        </g>
    </g>
    <g clip-path="url(#clip3_208_835)">
        <mask id="mask3_208_835" style="mask-type:luminance" maskUnits="userSpaceOnUse" x="66" y="0" width="19"
        height="18">
        <path d="M84.5 0H66.5V18H84.5V0Z" fill="white" />
        </mask>
        <g mask="url(#mask3_208_835)">
        <path
            d="M75.2755 14.711L71.0584 16.9276C70.9521 16.9833 70.8324 17.0082 70.7127 16.9995C70.5931 16.9907 70.4782 16.9487 70.3812 16.878C70.2842 16.8074 70.209 16.711 70.1639 16.5997C70.1188 16.4885 70.1058 16.3669 70.1262 16.2487L70.9324 11.5559C70.9501 11.453 70.9425 11.3474 70.9102 11.2482C70.8779 11.149 70.822 11.0591 70.7472 10.9863L67.335 7.66145C67.249 7.57773 67.1882 7.47163 67.1594 7.35515C67.1306 7.23868 67.135 7.11647 67.1721 7.00236C67.2091 6.88824 67.2774 6.78677 67.3691 6.70944C67.4608 6.63209 67.5724 6.58197 67.6911 6.56473L72.4045 5.87945C72.5077 5.86462 72.6058 5.82493 72.6902 5.76378C72.7747 5.70263 72.843 5.62187 72.8892 5.52845L74.9978 1.2573C75.051 1.14998 75.1331 1.05966 75.2349 0.99651C75.3367 0.933363 75.454 0.899902 75.5738 0.899902C75.6936 0.899902 75.811 0.933363 75.9127 0.99651C76.0145 1.05966 76.0966 1.14998 76.1498 1.2573L78.2597 5.52716C78.3058 5.62041 78.3739 5.70108 78.4581 5.76223C78.5423 5.82336 78.6401 5.86314 78.7431 5.87816L83.4566 6.56345C83.5752 6.58069 83.6868 6.6308 83.7785 6.70815C83.8703 6.78549 83.9385 6.88696 83.9756 7.00108C84.0126 7.11518 84.017 7.23739 83.9882 7.35386C83.9594 7.47035 83.8986 7.57645 83.8127 7.66015L80.4017 10.985C80.3271 11.0577 80.2713 11.1473 80.2391 11.2463C80.2068 11.3453 80.1991 11.4507 80.2166 11.5533L81.0227 16.2475C81.0433 16.3659 81.0303 16.4876 80.9852 16.5991C80.9402 16.7104 80.8647 16.807 80.7675 16.8777C80.6703 16.9484 80.5552 16.9905 80.4353 16.999C80.3154 17.0076 80.1955 16.9824 80.0893 16.9263L75.8734 14.7097C75.7812 14.6613 75.6786 14.6359 75.5745 14.6359C75.4703 14.6359 75.3677 14.6613 75.2755 14.7097V14.711Z"
            fill="#FCBF02" />
        </g>
    </g>
    <g clip-path="url(#clip4_208_835)">
        <mask id="mask4_208_835" style="mask-type:luminance" maskUnits="userSpaceOnUse" x="88" y="0" width="19"
        height="18">
        <path d="M106.5 0H88.5V18H106.5V0Z" fill="white" />
        </mask>
        <g mask="url(#mask4_208_835)">
        <path
            d="M97.2755 14.711L93.0584 16.9276C92.9521 16.9833 92.8324 17.0082 92.7127 16.9995C92.5931 16.9907 92.4782 16.9487 92.3812 16.878C92.2842 16.8074 92.209 16.711 92.1639 16.5997C92.1188 16.4885 92.1058 16.3669 92.1262 16.2487L92.9324 11.5559C92.9501 11.453 92.9425 11.3474 92.9102 11.2482C92.8779 11.149 92.822 11.0591 92.7472 10.9863L89.335 7.66145C89.249 7.57773 89.1882 7.47163 89.1594 7.35515C89.1306 7.23868 89.135 7.11647 89.1721 7.00236C89.2091 6.88824 89.2774 6.78677 89.3691 6.70944C89.4608 6.63209 89.5724 6.58197 89.6911 6.56473L94.4045 5.87945C94.5077 5.86462 94.6058 5.82493 94.6902 5.76378C94.7747 5.70263 94.843 5.62187 94.8892 5.52845L96.9978 1.2573C97.051 1.14998 97.1331 1.05966 97.2349 0.99651C97.3367 0.933363 97.454 0.899902 97.5738 0.899902C97.6936 0.899902 97.811 0.933363 97.9127 0.99651C98.0145 1.05966 98.0966 1.14998 98.1498 1.2573L100.26 5.52716C100.306 5.62041 100.374 5.70108 100.458 5.76223C100.542 5.82336 100.64 5.86314 100.743 5.87816L105.457 6.56345C105.575 6.58069 105.687 6.6308 105.779 6.70815C105.87 6.78549 105.938 6.88696 105.976 7.00108C106.013 7.11518 106.017 7.23739 105.988 7.35386C105.959 7.47035 105.899 7.57645 105.813 7.66015L102.402 10.985C102.327 11.0577 102.271 11.1473 102.239 11.2463C102.207 11.3453 102.199 11.4507 102.217 11.5533L103.023 16.2475C103.043 16.3659 103.03 16.4876 102.985 16.5991C102.94 16.7104 102.865 16.807 102.767 16.8777C102.67 16.9484 102.555 16.9905 102.435 16.999C102.315 17.0076 102.195 16.9824 102.089 16.9263L97.8734 14.7097C97.7812 14.6613 97.6786 14.6359 97.5745 14.6359C97.4703 14.6359 97.3677 14.6613 97.2755 14.7097V14.711Z"
            fill="#FCBF02" />
        </g>
    </g>
    <defs>
        <clipPath id="clip0_208_835">
        <rect width="18" height="18" fill="white" transform="translate(0.5)" />
        </clipPath>
        <clipPath id="clip1_208_835">
        <rect width="18" height="18" fill="white" transform="translate(22.5)" />
        </clipPath>
        <clipPath id="clip2_208_835">
        <rect width="18" height="18" fill="white" transform="translate(44.5)" />
        </clipPath>
        <clipPath id="clip3_208_835">
        <rect width="18" height="18" fill="white" transform="translate(66.5)" />
        </clipPath>
        <clipPath id="clip4_208_835">
        <rect width="18" height="18" fill="white" transform="translate(88.5)" />
        </clipPath>
    </defs>
</svg>
