<svg width="115" height="28" viewBox="0 0 115 28" fill="none" xmlns="http://www.w3.org/2000/svg">
<path d="M27.9349 10.9726H17.5584L14.3533 1.15332L11.1382 10.9726L0.761719 10.9626L9.16508 17.0374L5.94997 26.8467L14.3533 20.7818L22.7467 26.8467L19.5416 17.0374L27.9349 10.9726Z" fill="#00B67A"/>
<path d="M30.5803 5.05713H42.0686V7.18828H37.5514V19.1685H35.0675V7.18828H30.5703V5.05713H30.5803ZM41.5778 8.95096H43.7012V10.9228H43.7413C43.8114 10.6439 43.9416 10.3751 44.1319 10.1161C44.3222 9.8572 44.5525 9.60823 44.823 9.3991C45.0934 9.18001 45.3939 9.01072 45.7244 8.8713C46.0549 8.74183 46.3955 8.67212 46.736 8.67212C46.9964 8.67212 47.1867 8.68208 47.2869 8.69204C47.3871 8.702 47.4872 8.72192 47.5974 8.73187V10.9029C47.4371 10.873 47.2769 10.8531 47.1066 10.8332C46.9363 10.8132 46.7761 10.8033 46.6158 10.8033C46.2352 10.8033 45.8746 10.8829 45.5341 11.0323C45.1936 11.1817 44.9031 11.4108 44.6527 11.6996C44.4023 11.9983 44.202 12.3568 44.0518 12.795C43.9015 13.2332 43.8314 13.7311 43.8314 14.2988V19.1586H41.5678V8.95097L41.5778 8.95096ZM58.0039 19.1685H55.7804V17.7445H55.7403C55.4599 18.2623 55.0492 18.6706 54.4984 18.9793C53.9475 19.288 53.3866 19.4474 52.8157 19.4474C51.4635 19.4474 50.482 19.1188 49.881 18.4515C49.2801 17.7843 48.9796 16.7785 48.9796 15.434V8.95097H51.2432V15.215C51.2432 16.1112 51.4135 16.7486 51.764 17.1171C52.1046 17.4855 52.5953 17.6747 53.2163 17.6747C53.6971 17.6747 54.0877 17.605 54.4082 17.4557C54.7287 17.3063 54.9891 17.1171 55.1794 16.8681C55.3798 16.6291 55.52 16.3303 55.6101 15.9917C55.7003 15.6531 55.7403 15.2847 55.7403 14.8863V8.96092H58.0039V19.1685ZM61.8601 15.8921C61.9302 16.5494 62.1806 17.0075 62.6113 17.2764C63.052 17.5353 63.5728 17.6747 64.1838 17.6747C64.3941 17.6747 64.6345 17.6548 64.9049 17.625C65.1753 17.5951 65.4358 17.5254 65.6661 17.4357C65.9065 17.3461 66.0968 17.2067 66.2571 17.0274C66.4073 16.8482 66.4774 16.6191 66.4674 16.3303C66.4574 16.0415 66.3472 15.8025 66.1469 15.6233C65.9466 15.434 65.6962 15.2946 65.3857 15.1751C65.0752 15.0656 64.7246 14.966 64.324 14.8863C63.9233 14.8067 63.5227 14.717 63.1121 14.6274C62.6914 14.5378 62.2807 14.4183 61.8901 14.2888C61.4995 14.1593 61.1489 13.9801 60.8384 13.751C60.5279 13.5319 60.2776 13.2431 60.0973 12.8946C59.907 12.546 59.8168 12.1178 59.8168 11.6C59.8168 11.0423 59.957 10.5842 60.2275 10.2058C60.4979 9.82733 60.8485 9.52857 61.2591 9.29952C61.6798 9.07047 62.1405 8.91113 62.6513 8.81154C63.1621 8.72192 63.6529 8.67212 64.1137 8.67212C64.6445 8.67212 65.1553 8.73187 65.6361 8.84142C66.1168 8.95096 66.5575 9.13022 66.9482 9.38915C67.3388 9.63811 67.6593 9.96675 67.9197 10.3651C68.1801 10.7634 68.3404 11.2514 68.4105 11.8191H66.0467C65.9365 11.2813 65.6962 10.9128 65.3055 10.7336C64.9149 10.5443 64.4642 10.4547 63.9634 10.4547C63.8032 10.4547 63.6129 10.4647 63.3925 10.4946C63.1722 10.5244 62.9718 10.5742 62.7715 10.6439C62.5812 10.7136 62.421 10.8232 62.2807 10.9626C62.1505 11.102 62.0804 11.2813 62.0804 11.5103C62.0804 11.7892 62.1806 12.0083 62.3709 12.1776C62.5612 12.3469 62.8116 12.4863 63.1221 12.6058C63.4326 12.7153 63.7831 12.8149 64.1838 12.8946C64.5844 12.9743 64.9951 13.0639 65.4157 13.1535C65.8264 13.2431 66.227 13.3626 66.6276 13.4921C67.0283 13.6216 67.3788 13.8008 67.6893 14.0299C67.9998 14.2589 68.2502 14.5378 68.4405 14.8764C68.6308 15.215 68.731 15.6432 68.731 16.1411C68.731 16.7486 68.5908 17.2565 68.3103 17.6847C68.0299 18.103 67.6693 18.4515 67.2286 18.7104C66.7879 18.9694 66.2871 19.1685 65.7463 19.288C65.2054 19.4076 64.6645 19.4673 64.1337 19.4673C63.4827 19.4673 62.8817 19.3976 62.3308 19.2482C61.7799 19.0988 61.2992 18.8797 60.8985 18.5909C60.4979 18.2922 60.1774 17.9237 59.947 17.4855C59.7167 17.0474 59.5965 16.5195 59.5764 15.9121H61.8601V15.8921ZM69.332 8.95096H71.0447V5.8837H73.3083V8.95096H75.3515V10.634H73.3083V16.0913C73.3083 16.3303 73.3183 16.5295 73.3383 16.7088C73.3584 16.8781 73.4084 17.0274 73.4785 17.1469C73.5487 17.2664 73.6588 17.3561 73.8091 17.4158C73.9593 17.4756 74.1496 17.5054 74.41 17.5054C74.5703 17.5054 74.7305 17.5055 74.8908 17.4955C75.051 17.4855 75.2113 17.4656 75.3716 17.4258V19.1685C75.1212 19.1984 74.8708 19.2183 74.6404 19.2482C74.4 19.2781 74.1596 19.288 73.9092 19.288C73.3083 19.288 72.8275 19.2283 72.4669 19.1188C72.1064 19.0092 71.8159 18.8399 71.6156 18.6208C71.4053 18.4017 71.275 18.1328 71.1949 17.8042C71.1248 17.4756 71.0747 17.0971 71.0647 16.6789V10.6539H69.352V8.95096H69.332ZM76.9541 8.95096H79.0975V10.3352H79.1375C79.458 9.7377 79.8988 9.31943 80.4697 9.06051C81.0406 8.80158 81.6515 8.67212 82.3226 8.67212C83.1339 8.67212 83.835 8.81154 84.436 9.10034C85.0369 9.37919 85.5377 9.76757 85.9384 10.2655C86.339 10.7634 86.6295 11.341 86.8298 11.9983C87.0301 12.6556 87.1302 13.3626 87.1302 14.1095C87.1302 14.7967 87.0401 15.4639 86.8598 16.1013C86.6795 16.7486 86.4091 17.3162 86.0485 17.8142C85.688 18.3121 85.2272 18.7005 84.6663 18.9992C84.1054 19.298 83.4544 19.4474 82.6932 19.4474C82.3627 19.4474 82.0321 19.4175 81.7016 19.3578C81.3711 19.298 81.0506 19.1984 80.7501 19.069C80.4496 18.9395 80.1592 18.7702 79.9088 18.5611C79.6483 18.3519 79.438 18.1129 79.2577 17.844H79.2177V22.9429H76.9541V8.95096ZM84.8667 14.0697C84.8667 13.6116 84.8066 13.1635 84.6864 12.7253C84.5662 12.2871 84.3859 11.9087 84.1455 11.5701C83.9051 11.2315 83.6046 10.9626 83.2541 10.7634C82.8935 10.5643 82.4829 10.4547 82.0221 10.4547C81.0706 10.4547 80.3495 10.7834 79.8687 11.4406C79.3879 12.0979 79.1476 12.9743 79.1476 14.0697C79.1476 14.5876 79.2077 15.0656 79.3379 15.5038C79.4681 15.9419 79.6484 16.3204 79.9088 16.639C80.1592 16.9577 80.4596 17.2067 80.8102 17.3859C81.1608 17.5752 81.5714 17.6648 82.0321 17.6648C82.553 17.6648 82.9837 17.5552 83.3442 17.3461C83.7048 17.137 83.9953 16.8581 84.2256 16.5295C84.456 16.1909 84.6263 15.8125 84.7264 15.3843C84.8166 14.956 84.8667 14.5179 84.8667 14.0697ZM88.863 5.05713H91.1266V7.18828H88.863V5.05713ZM88.863 8.95096H91.1266V19.1685H88.863V8.95096ZM93.1498 5.05713H95.4134V19.1685H93.1498V5.05713ZM102.354 19.4474C101.533 19.4474 100.802 19.308 100.161 19.0391C99.52 18.7702 98.9791 18.3918 98.5284 17.9237C98.0877 17.4457 97.7471 16.8781 97.5168 16.2208C97.2864 15.5635 97.1662 14.8365 97.1662 14.0498C97.1662 13.273 97.2864 12.556 97.5168 11.8987C97.7471 11.2415 98.0877 10.6738 98.5284 10.1958C98.9691 9.71778 99.52 9.34931 100.161 9.08043C100.802 8.81154 101.533 8.67212 102.354 8.67212C103.176 8.67212 103.907 8.81154 104.548 9.08043C105.189 9.34931 105.73 9.72774 106.181 10.1958C106.621 10.6738 106.962 11.2415 107.192 11.8987C107.423 12.556 107.543 13.273 107.543 14.0498C107.543 14.8365 107.423 15.5635 107.192 16.2208C106.962 16.8781 106.621 17.4457 106.181 17.9237C105.74 18.4017 105.189 18.7702 104.548 19.0391C103.907 19.308 103.176 19.4474 102.354 19.4474ZM102.354 17.6648C102.855 17.6648 103.296 17.5552 103.667 17.3461C104.037 17.137 104.338 16.8581 104.578 16.5195C104.818 16.1809 104.989 15.7926 105.109 15.3643C105.219 14.9361 105.279 14.4979 105.279 14.0498C105.279 13.6116 105.219 13.1834 105.109 12.7452C104.999 12.307 104.818 11.9286 104.578 11.59C104.338 11.2514 104.037 10.9825 103.667 10.7734C103.296 10.5643 102.855 10.4547 102.354 10.4547C101.854 10.4547 101.413 10.5643 101.042 10.7734C100.672 10.9825 100.371 11.2614 100.131 11.59C99.8905 11.9286 99.7203 12.307 99.6001 12.7452C99.4899 13.1834 99.4298 13.6116 99.4298 14.0498C99.4298 14.4979 99.4899 14.9361 99.6001 15.3643C99.7103 15.7926 99.8905 16.1809 100.131 16.5195C100.371 16.8581 100.672 17.137 101.042 17.3461C101.413 17.5652 101.854 17.6648 102.354 17.6648ZM108.204 8.95096H109.916V5.8837H112.18V8.95096H114.223V10.634H112.18V16.0913C112.18 16.3303 112.19 16.5295 112.21 16.7088C112.23 16.8781 112.28 17.0274 112.35 17.1469C112.42 17.2664 112.531 17.3561 112.681 17.4158C112.831 17.4756 113.021 17.5054 113.282 17.5054C113.442 17.5054 113.602 17.5055 113.763 17.4955C113.923 17.4855 114.083 17.4656 114.243 17.4258V19.1685C113.993 19.1984 113.743 19.2183 113.512 19.2482C113.272 19.2781 113.031 19.288 112.781 19.288C112.18 19.288 111.699 19.2283 111.339 19.1188C110.978 19.0092 110.688 18.8399 110.487 18.6208C110.277 18.4017 110.147 18.1328 110.067 17.8042C109.997 17.4756 109.947 17.0971 109.937 16.6789V10.6539H108.224V8.95096L108.204 8.95096Z" fill="#091022"/>
</svg>
