<svg width="131" height="24" viewBox="0 0 131 24" fill="none" xmlns="http://www.w3.org/2000/svg">
<path d="M24.3516 0H0.351562V24H24.3516V0Z" fill="#219653"/>
<path d="M12.3531 15.7251L16.0031 14.8001L17.5281 19.5001L12.3531 15.7251ZM20.7531 9.6501H14.3281L12.3531 3.6001L10.3781 9.6501H3.95312L9.15313 13.4001L7.17813 19.4501L12.3781 15.7001L15.5781 13.4001L20.7531 9.6501Z" fill="white"/>
<path d="M50.9258 0H26.9258V24H50.9258V0Z" fill="#219653"/>
<path d="M38.9273 15.7251L42.5773 14.8001L44.1023 19.5001L38.9273 15.7251ZM47.3273 9.6501H40.9023L38.9273 3.6001L36.9523 9.6501H30.5273L35.7273 13.4001L33.7523 19.4501L38.9523 15.7001L42.1523 13.4001L47.3273 9.6501Z" fill="white"/>
<path d="M77.5 0H53.5V24H77.5V0Z" fill="#219653"/>
<path d="M65.5016 15.7251L69.1516 14.8001L70.6766 19.5001L65.5016 15.7251ZM73.9016 9.6501H67.4766L65.5016 3.6001L63.5266 9.6501H57.1016L62.3016 13.4001L60.3266 19.4501L65.5266 15.7001L68.7266 13.4001L73.9016 9.6501Z" fill="white"/>
<path d="M104.074 0H80.0742V24H104.074V0Z" fill="#219653"/>
<path d="M92.0758 15.7251L95.7258 14.8001L97.2508 19.5001L92.0758 15.7251ZM100.476 9.6501H94.0508L92.0758 3.6001L90.1008 9.6501H83.6758L88.8758 13.4001L86.9008 19.4501L92.1008 15.7001L95.3008 13.4001L100.476 9.6501Z" fill="white"/>
<path d="M130.648 0H106.648V24H130.648V0Z" fill="#219653"/>
<path d="M118.65 15.7251L122.3 14.8001L123.825 19.5001L118.65 15.7251ZM127.05 9.6501H120.625L118.65 3.6001L116.675 9.6501H110.25L115.45 13.4001L113.475 19.4501L118.675 15.7001L121.875 13.4001L127.05 9.6501Z" fill="white"/>
</svg>
